<svg width="128" height="119" viewBox="0 0 128 119" fill="none" xmlns="http://www.w3.org/2000/svg">
<g filter="url(#filter0_d)">
<path d="M116.262 50.0275C117.801 50.0275 119.278 50.5919 120.367 51.5966C121.455 52.6012 122.067 53.9638 122.067 55.3846C122.067 56.8055 121.455 58.1681 120.367 59.1727C119.278 60.1774 117.801 60.7418 116.262 60.7418C115.483 60.7482 114.711 60.6021 113.998 60.3132C112.951 59.9016 112.058 59.2149 111.43 58.3386C110.802 57.4623 110.468 56.4351 110.468 55.3846C110.468 54.3342 110.802 53.307 111.43 52.4307C112.058 51.5544 112.951 50.8677 113.998 50.4561C114.711 50.1671 115.483 50.0211 116.262 50.0275Z" fill="#66F2CB"/>
<path d="M96.6791 25.2413C96.1393 24.7447 95.711 24.1547 95.4188 23.505C95.1266 22.8554 94.9762 22.1589 94.9763 21.4555C94.9693 20.7366 95.1276 20.0245 95.4407 19.3661C95.9257 18.3094 96.7655 17.4242 97.8366 16.8411C98.9077 16.2579 100.153 16.0076 101.39 16.127C102.627 16.2464 103.79 16.7292 104.707 17.5043C105.624 18.2794 106.247 19.3057 106.485 20.4323C106.722 21.5588 106.561 22.7259 106.026 23.7617C105.49 24.7976 104.609 25.6474 103.511 26.1859C102.412 26.7245 101.156 26.9234 99.926 26.7533C98.6962 26.5833 97.558 26.0532 96.6791 25.2413Z" fill="#66F2CB"/>
<path d="M96.6791 85.5279C97.558 84.716 98.6962 84.1859 99.926 84.0159C101.156 83.8458 102.412 84.0447 103.511 84.5833C104.609 85.1218 105.49 85.9716 106.026 87.0074C106.561 88.0432 106.722 89.2103 106.485 90.3368C106.247 91.4633 105.624 92.4896 104.707 93.2647C103.79 94.0397 102.627 94.5225 101.39 94.6419C100.153 94.7613 98.9077 94.511 97.8366 93.9279C96.7655 93.3448 95.9257 92.4596 95.4407 91.4029C95.1276 90.7446 94.9693 90.0325 94.9763 89.3136C94.9762 88.6102 95.1266 87.9138 95.4188 87.2641C95.711 86.6145 96.1393 86.0245 96.6791 85.5279Z" fill="#66F2CB"/>
<path d="M89.1711 71.4564C89.178 73.6695 88.8324 75.8717 88.1456 77.9921C86.6106 82.7999 83.4307 87.02 79.0813 90.0218C74.732 93.0236 69.4467 94.6457 64.0155 94.6457C58.5843 94.6457 53.299 93.0236 48.9496 90.0218C44.6002 87.02 41.4204 82.7999 39.8854 77.9921C39.1986 75.8717 38.853 73.6695 38.8598 71.4564H89.1711Z" fill="#1746A0"/>
<path d="M89.1711 71.4564C89.178 73.6696 88.8324 75.8717 88.1456 77.9922C86.6155 82.8046 83.4377 87.0304 79.0879 90.037C74.7381 93.0436 69.4501 94.6693 64.0155 94.6709C62.7199 94.6726 61.4262 94.583 60.1454 94.4031C65.415 93.636 70.2857 91.348 74.0584 87.8673C77.046 85.1246 79.2299 81.7267 80.4054 77.9922C81.0922 75.8717 81.4378 73.6696 81.4309 71.4564H89.1711Z" fill="#1746A0"/>
<path d="M81.431 46.4559V48.2416C81.431 48.7152 81.2271 49.1694 80.8642 49.5043C80.5013 49.8391 80.0092 50.0273 79.496 50.0273H75.6259V44.6702H79.496C80.0092 44.6702 80.5013 44.8584 80.8642 45.1932C81.2271 45.5281 81.431 45.9823 81.431 46.4559Z" fill="#FFC477"/>
<path d="M81.431 23.2413V30.3842C81.4319 32.2637 80.8956 34.1101 79.8764 35.7373C78.8572 37.3645 77.3911 38.7148 75.6258 39.6522V39.3129L69.6272 37.92C69.3628 39.1035 68.7617 40.2006 67.8856 41.0986C65.312 43.6522 60.726 43.8844 60.1454 42.8844C59.7778 42.2415 61.2678 41.4736 62.0805 39.3129C62.2941 38.1306 62.2941 36.9238 62.0805 35.7414H60.1454L52.4052 39.3129V41.0986H50.4702C49.4447 41.0958 48.4621 40.7186 47.737 40.0495C47.0119 39.3803 46.6032 38.4735 46.6001 37.5272V33.9557C46.6001 31.1141 47.8233 28.3888 50.0007 26.3795C52.178 24.3701 55.1312 23.2413 58.2104 23.2413H81.431Z" fill="#66F2CB"/>
<path d="M77.5609 71.4564L73.6908 85.7422H54.3403L50.4702 71.4564H77.5609Z" fill="#66F2CB"/>
<path d="M77.5609 71.4563L64.0155 78.5992L50.4702 71.4563L58.2104 66.0991V59.2955C59.9729 60.2427 61.976 60.7418 64.0155 60.7418C66.0551 60.7418 68.0582 60.2427 69.8207 59.2955V66.0991L77.5609 71.4563Z" fill="#FFC477"/>
<path d="M75.6259 39.3132V50.0277C75.6267 51.9071 75.0905 53.7536 74.0713 55.3808C73.0521 57.0079 71.5859 58.3583 69.8207 59.2957C68.0583 60.2429 66.0551 60.742 64.0156 60.742C61.976 60.742 59.9729 60.2429 58.2104 59.2957C56.4452 58.3583 54.979 57.0079 53.9598 55.3808C52.9406 53.7536 52.4044 51.9071 52.4053 50.0277V39.3132L60.1455 35.7418H62.0805C62.2941 36.9241 62.2941 38.1309 62.0805 39.3132C61.2678 41.474 59.7778 42.2419 60.1455 42.8847C60.726 43.8847 65.312 43.6526 67.8857 41.099C68.7617 40.201 69.3629 39.1038 69.6272 37.9204L75.6259 39.3132Z" fill="#FFC477"/>
<path d="M75.6258 39.3129V50.0274C75.6266 51.9068 75.0904 53.7533 74.0712 55.3805C73.052 57.0077 71.5859 58.358 69.8206 59.2954C68.062 60.2511 66.0564 60.7509 64.0155 60.7419C63.3675 60.7401 62.7205 60.6924 62.0804 60.599C63.4467 60.389 64.7589 59.947 65.9505 59.2954C67.7158 58.358 69.1819 57.0077 70.2011 55.3805C71.2203 53.7533 71.7565 51.9068 71.7557 50.0274V39.3129L69.3756 38.7593C69.4749 38.4837 69.5588 38.2035 69.6271 37.92L75.6258 39.3129Z" fill="#FFC477"/>
<path d="M69.8207 7.17019C69.8202 8.23822 69.4768 9.28218 68.8338 10.1702C68.249 10.9699 67.4411 11.609 66.4953 12.0201C65.5495 12.4312 64.501 12.5989 63.4605 12.5057C62.42 12.4124 61.4261 12.0615 60.5837 11.4902C59.7414 10.9188 59.0818 10.1481 58.6748 9.25949C58.3617 8.60118 58.2034 7.88908 58.2104 7.17019C58.2104 5.74937 58.822 4.38674 59.9107 3.38207C60.9993 2.37741 62.4759 1.81299 64.0155 1.81299C65.5551 1.81299 67.0317 2.37741 68.1204 3.38207C69.2091 4.38674 69.8207 5.74937 69.8207 7.17019Z" fill="#66F2CB"/>
<path d="M68.8338 100.6C69.4768 101.488 69.8202 102.532 69.8207 103.6C69.8207 105.021 69.2091 106.383 68.1204 107.388C67.0317 108.393 65.5551 108.957 64.0155 108.957C62.4759 108.957 60.9993 108.393 59.9107 107.388C58.822 106.383 58.2104 105.021 58.2104 103.6C58.2034 102.881 58.3617 102.169 58.6748 101.51C59.0818 100.622 59.7414 99.851 60.5837 99.2796C61.4261 98.7082 62.42 98.3573 63.4605 98.2641C64.501 98.1708 65.5495 98.3385 66.4953 98.7496C67.4411 99.1607 68.249 99.7998 68.8338 100.6Z" fill="#66F2CB"/>
<path d="M52.4052 44.6702V50.0273H48.5351C48.0219 50.0273 47.5298 49.8391 47.1669 49.5043C46.804 49.1694 46.6001 48.7152 46.6001 48.2416V46.4559C46.6001 45.9823 46.804 45.5281 47.1669 45.1932C47.5298 44.8584 48.0219 44.6702 48.5351 44.6702H52.4052Z" fill="#FFC477"/>
<path d="M31.3519 25.2413C30.8138 25.7395 30.1744 26.1347 29.4705 26.4044C28.7665 26.6741 28.0118 26.8128 27.2496 26.8128C26.4706 26.8192 25.6989 26.6731 24.9856 26.3842C24.1546 26.0581 23.4176 25.5576 22.833 24.9226C22.2484 24.2875 21.8324 23.5353 21.6181 22.7259C21.4038 21.9164 21.397 21.072 21.5984 20.2597C21.7997 19.4474 22.2036 18.6897 22.7779 18.0467C23.3523 17.4037 24.0812 16.8932 24.9068 16.5558C25.7325 16.2184 26.632 16.0634 27.5339 16.1031C28.4358 16.1428 29.3153 16.3761 30.1023 16.7845C30.8894 17.1929 31.5624 17.765 32.0678 18.4555C32.7108 19.3436 33.0543 20.3875 33.0547 21.4556C33.0548 22.159 32.9044 22.8554 32.6122 23.5051C32.32 24.1547 31.8917 24.7448 31.3519 25.2413Z" fill="#66F2CB"/>
<path d="M31.3519 85.5279C31.8917 86.0245 32.32 86.6145 32.6122 87.2641C32.9044 87.9138 33.0548 88.6103 33.0547 89.3137C33.0543 90.3817 32.7108 91.4257 32.0678 92.3137C31.5624 93.0042 30.8894 93.5764 30.1023 93.9847C29.3153 94.3931 28.4358 94.6264 27.5339 94.6661C26.632 94.7058 25.7325 94.5508 24.9068 94.2134C24.0812 93.876 23.3523 93.3655 22.7779 92.7225C22.2036 92.0796 21.7997 91.3218 21.5984 90.5095C21.397 89.6972 21.4038 88.8528 21.6181 88.0433C21.8324 87.2339 22.2484 86.4817 22.833 85.8467C23.4176 85.2116 24.1546 84.7111 24.9856 84.385C25.6989 84.0961 26.4706 83.95 27.2496 83.9564C28.0118 83.9564 28.7665 84.0952 29.4705 84.3648C30.1744 84.6345 30.8138 85.0297 31.3519 85.5279Z" fill="#66F2CB"/>
<path d="M11.7692 60.742C14.9753 60.742 17.5743 58.3434 17.5743 55.3846C17.5743 52.4259 14.9753 50.0273 11.7692 50.0273C8.5631 50.0273 5.96405 52.4259 5.96405 55.3846C5.96405 58.3434 8.5631 60.742 11.7692 60.742Z" fill="#66F2CB"/>
<path d="M19.2346 57.1703H29.1846V53.5988H19.2346C18.7636 51.9155 17.6436 50.4485 16.0843 49.4727C14.5251 48.497 12.6338 48.0795 10.7649 48.2986C8.896 48.5177 7.17783 49.3582 5.93246 50.6627C4.68708 51.9672 4 53.646 4 55.3846C4 57.1231 4.68708 58.802 5.93246 60.1065C7.17783 61.411 8.896 62.2515 10.7649 62.4706C12.6338 62.6896 14.5251 62.2722 16.0843 61.2964C17.6436 60.3207 18.7636 58.8536 19.2346 57.1703ZM11.7692 58.956C11.0038 58.956 10.2555 58.7466 9.61908 58.3541C8.98264 57.9617 8.4866 57.4039 8.19369 56.7513C7.90077 56.0987 7.82413 55.3806 7.97345 54.6878C8.12278 53.995 8.49137 53.3587 9.03262 52.8592C9.57386 52.3597 10.2634 52.0195 11.0142 51.8817C11.7649 51.7439 12.543 51.8147 13.2502 52.085C13.9574 52.3553 14.5618 52.8131 14.9871 53.4004C15.4123 53.9877 15.6393 54.6782 15.6393 55.3846C15.6393 56.3318 15.2315 57.2402 14.5058 57.91C13.78 58.5798 12.7956 58.956 11.7692 58.956Z" fill="black"/>
<path d="M116.262 48.2416C114.551 48.2476 112.89 48.7765 111.54 49.7458C110.189 50.7151 109.224 52.07 108.796 53.5989H98.8464V57.1704H108.796C109.161 58.4607 109.91 59.6309 110.959 60.548C112.008 61.4652 113.314 62.0925 114.73 62.3589C116.146 62.6253 117.614 62.52 118.968 62.0549C120.322 61.5899 121.508 60.7837 122.391 59.7281C123.273 58.6724 123.818 57.4095 123.962 56.0827C124.106 54.7559 123.844 53.4185 123.205 52.2222C122.567 51.026 121.578 50.0189 120.351 49.3152C119.123 48.6116 117.707 48.2397 116.262 48.2416ZM116.262 58.9561C115.496 58.9561 114.748 58.7467 114.112 58.3542C113.475 57.9618 112.979 57.404 112.686 56.7514C112.393 56.0988 112.317 55.3807 112.466 54.6879C112.615 53.9951 112.984 53.3587 113.525 52.8592C114.067 52.3597 114.756 52.0196 115.507 51.8818C116.258 51.744 117.036 51.8147 117.743 52.085C118.45 52.3553 119.055 52.8131 119.48 53.4004C119.905 53.9878 120.132 54.6783 120.132 55.3846C120.132 56.3319 119.724 57.2403 118.998 57.9101C118.273 58.5799 117.288 58.9561 116.262 58.9561Z" fill="black"/>
<path d="M80.0309 15.3765L81.5325 12.0873L84.7582 13.3413L83.2566 16.6306L80.0309 15.3765Z" fill="black"/>
<path d="M73.6413 12.8682L75.1468 9.5788L78.3743 10.8369L76.8688 14.1263L73.6413 12.8682Z" fill="black"/>
<path d="M86.481 17.8892L87.9826 14.5998L91.2083 15.8539L89.7067 19.1434L86.481 17.8892Z" fill="black"/>
<path d="M108.768 67.2821L110.131 64.3046L113.696 65.6939L112.333 68.6713L108.768 67.2821Z" fill="black"/>
<path d="M106.043 73.2403L107.406 70.2626L110.97 71.652L109.607 74.6296L106.043 73.2403Z" fill="black"/>
<path d="M103.319 79.1985L104.682 76.2192L108.247 77.6086L106.883 80.5879L103.319 79.1985Z" fill="black"/>
<path d="M43.1606 97.4316L44.6622 94.1421L47.8879 95.3963L46.3863 98.6857L43.1606 97.4316Z" fill="black"/>
<path d="M49.6107 99.946L51.1127 96.6561L54.3386 97.9101L52.8366 101.2L49.6107 99.946Z" fill="black"/>
<path d="M36.7438 94.9981L38.2492 91.7087L41.4768 92.9667L39.9713 96.2562L36.7438 94.9981Z" fill="black"/>
<path d="M14.3293 45.1571L15.693 42.1777L19.2575 43.5671L17.8939 46.5464L14.3293 45.1571Z" fill="black"/>
<path d="M17.0536 39.1971L18.4165 36.2192L21.981 37.6087L20.6182 40.5866L17.0536 39.1971Z" fill="black"/>
<path d="M19.7792 33.2404L21.142 30.2628L24.7065 31.6521L23.3437 34.6297L19.7792 33.2404Z" fill="black"/>
<path d="M14.3612 65.6016L17.9257 64.2122L19.2893 67.1916L15.7248 68.581L14.3612 65.6016Z" fill="black"/>
<path d="M19.8075 77.5118L23.372 76.1225L24.7349 79.1001L21.1704 80.4894L19.8075 77.5118Z" fill="black"/>
<path d="M17.0856 71.5573L20.6502 70.1679L22.013 73.1456L18.4485 74.535L17.0856 71.5573Z" fill="black"/>
<path d="M80.0756 95.3611L83.3013 94.1038L84.8068 97.393L81.581 98.6503L80.0756 95.3611Z" fill="black"/>
<path d="M73.622 97.8755L76.8495 96.6174L78.355 99.9069L75.1275 101.165L73.622 97.8755Z" fill="black"/>
<path d="M86.5292 92.8475L89.7551 91.5901L91.2609 94.8804L88.035 96.1378L86.5292 92.8475Z" fill="black"/>
<path d="M106.013 37.5424L109.577 36.1529L110.94 39.1307L107.376 40.5202L106.013 37.5424Z" fill="black"/>
<path d="M108.735 43.497L112.299 42.1076L113.662 45.0854L110.098 46.4748L108.735 43.497Z" fill="black"/>
<path d="M103.288 31.5781L106.853 30.1887L108.216 33.1679L104.652 34.5573L103.288 31.5781Z" fill="black"/>
<path d="M36.7643 15.8065L39.99 14.5491L41.4955 17.8387L38.2697 19.0961L36.7643 15.8065Z" fill="black"/>
<path d="M43.2185 13.2957L46.4443 12.0385L47.9497 15.3277L44.724 16.585L43.2185 13.2957Z" fill="black"/>
<path d="M49.6691 10.7838L52.895 9.52643L54.4008 12.8166L51.1749 14.074L49.6691 10.7838Z" fill="black"/>
<path d="M87.2767 31.3932L90.0129 33.9182L96.8746 27.5861C98.0541 28.2425 99.404 28.5923 100.781 28.5986C102.312 28.5986 103.809 28.1796 105.082 27.3948C106.355 26.6099 107.347 25.4943 107.932 24.1891C108.518 22.884 108.672 21.4478 108.373 20.0622C108.074 18.6766 107.337 17.4039 106.255 16.4049C105.172 15.406 103.793 14.7257 102.291 14.4501C100.79 14.1744 99.2337 14.3159 97.8194 14.8565C96.4051 15.3972 95.1962 16.3127 94.3457 17.4873C93.4952 18.662 93.0412 20.043 93.0412 21.4557C93.048 22.7268 93.4271 23.9725 94.1384 25.061L87.2767 31.3932ZM100.781 17.8842C101.547 17.8842 102.295 18.0937 102.932 18.4861C103.568 18.8786 104.064 19.4364 104.357 20.089C104.65 20.7415 104.727 21.4596 104.577 22.1524C104.428 22.8452 104.059 23.4816 103.518 23.9811C102.977 24.4805 102.287 24.8207 101.536 24.9585C100.786 25.0963 100.008 25.0256 99.3004 24.7553C98.5933 24.4849 97.9888 24.0272 97.5636 23.4399C97.1383 22.8525 96.9113 22.162 96.9113 21.4557C96.9113 20.5085 97.3191 19.6001 98.0449 18.9303C98.7706 18.2605 99.755 17.8842 100.781 17.8842Z" fill="black"/>
<path d="M27.2496 28.5986C28.627 28.5923 29.9769 28.2425 31.1565 27.5861L38.0182 33.9182L40.7543 31.3932L33.8926 25.061C34.604 23.9725 34.9831 22.7268 34.9898 21.4557C34.9898 20.043 34.5359 18.662 33.6854 17.4873C32.8349 16.3127 31.626 15.3972 30.2117 14.8565C28.7973 14.3159 27.241 14.1744 25.7396 14.4501C24.2381 14.7257 22.8589 15.406 21.7765 16.4049C20.694 17.4039 19.9568 18.6766 19.6581 20.0622C19.3595 21.4478 19.5128 22.884 20.0986 24.1891C20.6844 25.4943 21.6765 26.6099 22.9494 27.3948C24.2223 28.1796 25.7187 28.5986 27.2496 28.5986ZM27.2496 17.8842C28.015 17.8842 28.7633 18.0937 29.3997 18.4861C30.0362 18.8786 30.5322 19.4364 30.8251 20.089C31.118 20.7415 31.1947 21.4596 31.0454 22.1524C30.896 22.8452 30.5274 23.4816 29.9862 23.9811C29.4449 24.4805 28.7554 24.8207 28.0046 24.9585C27.2539 25.0963 26.4758 25.0256 25.7686 24.7553C25.0614 24.4849 24.457 24.0272 24.0317 23.4399C23.6065 22.8525 23.3795 22.162 23.3795 21.4557C23.3795 20.5085 23.7872 19.6001 24.513 18.9303C25.2388 18.2605 26.2232 17.8842 27.2496 17.8842Z" fill="black"/>
<path d="M100.781 82.1707C99.4041 82.1769 98.0542 82.5267 96.8746 83.1832L90.3632 77.1706C90.8489 75.2987 91.0983 73.3811 91.1062 71.4562C91.1062 70.9826 90.9024 70.5284 90.5395 70.1935C90.1766 69.8587 89.6844 69.6705 89.1712 69.6705H78.2053L71.7557 65.2062V60.2704C73.274 59.292 74.5587 58.0367 75.5305 56.5821C76.5024 55.1275 77.1407 53.5044 77.4061 51.8131H79.4959C80.5224 51.8131 81.5067 51.4369 82.2325 50.7671C82.9583 50.0973 83.3661 49.1889 83.3661 48.2417V46.4559C83.3661 45.5087 82.9583 44.6003 82.2325 43.9305C81.5067 43.2607 80.5224 42.8845 79.4959 42.8845H77.5609V40.6023C79.3468 39.4547 80.8068 37.9269 81.8173 36.1483C82.8278 34.3697 83.359 32.3925 83.3661 30.3843V23.2413C83.3661 22.7677 83.1622 22.3135 82.7993 21.9786C82.4364 21.6437 81.9442 21.4556 81.431 21.4556H65.9506V14.0591C67.7747 13.6244 69.3644 12.5908 70.4217 11.1519C71.4791 9.71298 71.9314 7.9676 71.6941 6.24291C71.4567 4.51822 70.5458 2.93263 69.1323 1.78335C67.7187 0.634066 65.8995 0 64.0155 0C62.1316 0 60.3124 0.634066 58.8988 1.78335C57.4853 2.93263 56.5744 4.51822 56.337 6.24291C56.0997 7.9676 56.552 9.71298 57.6094 11.1519C58.6667 12.5908 60.2564 13.6244 62.0805 14.0591V21.4556H58.2104C54.6192 21.4594 51.1763 22.7776 48.6369 25.121C46.0976 27.4644 44.6691 30.6417 44.6651 33.9558V37.5272C44.6651 38.9481 45.2767 40.3107 46.3653 41.3154C47.454 42.32 48.9306 42.8845 50.4702 42.8845H48.5352C47.5087 42.8845 46.5244 43.2607 45.7986 43.9305C45.0728 44.6003 44.6651 45.5087 44.6651 46.4559V48.2417C44.6651 49.1889 45.0728 50.0973 45.7986 50.7671C46.5244 51.4369 47.5087 51.8131 48.5352 51.8131H50.625C50.8904 53.5044 51.5287 55.1275 52.5005 56.5821C53.4724 58.0367 54.7571 59.292 56.2753 60.2704V65.2062L49.8258 69.6705H38.8599C38.3467 69.6705 37.8545 69.8587 37.4916 70.1935C37.1287 70.5284 36.9249 70.9826 36.9249 71.4562C36.9328 73.3811 37.1822 75.2987 37.6679 77.1706L31.1565 83.1796C29.9766 82.5244 28.6266 82.1758 27.2496 82.1707C25.7187 82.1707 24.2222 82.5896 22.9494 83.3745C21.6765 84.1594 20.6844 85.2749 20.0986 86.5801C19.5128 87.8853 19.3595 89.3215 19.6581 90.7071C19.9568 92.0927 20.694 93.3655 21.7765 94.3644C22.8589 95.3634 24.2381 96.0437 25.7396 96.3193C27.241 96.5949 28.7973 96.4535 30.2116 95.9128C31.626 95.3722 32.8348 94.4567 33.6853 93.282C34.5358 92.1074 34.9898 90.7264 34.9898 89.3136C34.9831 88.0425 34.604 86.7967 33.8926 85.7082L38.9876 81.0064C40.9171 85.2895 44.0981 88.9937 48.1757 91.7057C52.2533 94.4177 57.0673 96.031 62.0805 96.3655V96.7101C60.2564 97.1448 58.6667 98.1784 57.6094 99.6173C56.552 101.056 56.0997 102.802 56.337 104.526C56.5744 106.251 57.4853 107.837 58.8988 108.986C60.3124 110.135 62.1316 110.769 64.0155 110.769C65.8995 110.769 67.7187 110.135 69.1323 108.986C70.5458 107.837 71.4567 106.251 71.6941 104.526C71.9314 102.802 71.4791 101.056 70.4217 99.6173C69.3644 98.1784 67.7747 97.1448 65.9506 96.7101V96.3655C70.9636 96.0312 75.7774 94.4182 79.855 91.7065C83.9326 88.9947 87.1137 85.2909 89.0435 81.0082L94.1385 85.71C93.4275 86.798 93.0484 88.0431 93.0413 89.3136C93.0413 90.7264 93.4953 92.1074 94.3458 93.282C95.1963 94.4567 96.4051 95.3722 97.8195 95.9128C99.2338 96.4535 100.79 96.5949 102.292 96.3193C103.793 96.0437 105.172 95.3634 106.255 94.3644C107.337 93.3655 108.074 92.0927 108.373 90.7071C108.672 89.3215 108.518 87.8853 107.933 86.5801C107.347 85.2749 106.355 84.1594 105.082 83.3745C103.809 82.5896 102.312 82.1707 100.781 82.1707ZM50.4702 48.2417H48.5352V46.4559H50.4702V48.2417ZM27.2496 92.8851C26.4842 92.8851 25.7359 92.6756 25.0995 92.2832C24.4631 91.8908 23.967 91.333 23.6741 90.6804C23.3812 90.0278 23.3045 89.3097 23.4539 88.6169C23.6032 87.9241 23.9718 87.2877 24.513 86.7882C25.0543 86.2887 25.7439 85.9486 26.4946 85.8108C27.2453 85.673 28.0235 85.7437 28.7306 86.014C29.4378 86.2843 30.0422 86.7421 30.4675 87.3294C30.8927 87.9167 31.1197 88.6073 31.1197 89.3136C31.1197 90.2608 30.712 91.1693 29.9862 91.839C29.2604 92.5088 28.276 92.8851 27.2496 92.8851ZM79.4959 46.4559V48.2417H77.5609V46.4559H79.4959ZM60.1454 7.1697C60.1454 6.46333 60.3724 5.77283 60.7977 5.1855C61.2229 4.59817 61.8274 4.14041 62.5345 3.87009C63.2417 3.59978 64.0198 3.52905 64.7706 3.66686C65.5213 3.80466 66.2109 4.14481 66.7521 4.64429C67.2934 5.14377 67.662 5.78015 67.8113 6.47295C67.9606 7.16574 67.884 7.88385 67.5911 8.53645C67.2981 9.18905 66.8021 9.74684 66.1657 10.1393C65.5292 10.5317 64.781 10.7412 64.0155 10.7412C62.9891 10.7412 62.0048 10.3649 61.279 9.69512C60.5532 9.02534 60.1454 8.11692 60.1454 7.1697ZM51.5403 37.7147C51.2186 37.8631 50.9481 38.0912 50.7591 38.3735C50.5701 38.6558 50.47 38.9811 50.4702 39.313C49.957 39.313 49.4648 39.1248 49.1019 38.7899C48.739 38.4551 48.5352 38.0008 48.5352 37.5272V33.9558C48.5382 31.5886 49.5586 29.3192 51.3724 27.6454C53.1862 25.9715 55.6453 25.0299 58.2104 25.0271H79.4959V30.3843C79.4937 31.7594 79.1472 33.1155 78.4837 34.3468C77.8201 35.578 76.8573 36.6512 75.6703 37.4826L70.0993 36.1879C69.8473 36.1294 69.5851 36.1182 69.3283 36.1552C69.0715 36.1922 68.8255 36.2765 68.6048 36.4032C68.3841 36.5299 68.1933 36.6963 68.0438 36.8924C67.8943 37.0886 67.7892 37.3106 67.7347 37.5451C67.5466 38.4146 67.1097 39.2217 66.4692 39.8826C65.5512 40.7378 64.3727 41.3146 63.0906 41.5362C63.4189 41.0206 63.6911 40.4763 63.9033 39.9112C64.2508 38.4539 64.2817 36.9474 63.9943 35.479C63.9261 35.0556 63.6953 34.6688 63.3441 34.3892C62.9928 34.1097 62.5444 33.9558 62.0805 33.9558H60.1454C59.8453 33.9555 59.5491 34.0197 59.2805 34.1433L51.5403 37.7147ZM54.3403 50.0274V40.4166L60.3196 37.6576C60.3479 38.0159 60.3251 38.3762 60.2519 38.729C59.9773 39.415 59.5853 40.0559 59.0908 40.6273C58.6576 41.0243 58.3632 41.532 58.2456 42.0848C58.128 42.6377 58.1926 43.2104 58.431 43.7291C58.7079 44.1534 59.0949 44.5074 59.557 44.7592C60.0191 45.0111 60.5418 45.153 61.0781 45.172C62.5941 45.283 64.118 45.0834 65.5407 44.5877C66.9634 44.0919 68.2498 43.3121 69.3079 42.3041C69.9623 41.6389 70.4967 40.881 70.8908 40.0594L73.6908 40.7059V50.0274C73.6908 52.3954 72.6714 54.6665 70.857 56.3409C69.0425 58.0154 66.5816 58.9561 64.0155 58.9561C61.4495 58.9561 58.9886 58.0154 57.1741 56.3409C55.3597 54.6665 54.3403 52.3954 54.3403 50.0274ZM59.3714 67.5276C59.6118 67.3613 59.8068 67.1456 59.9412 66.8976C60.0755 66.6497 60.1454 66.3763 60.1454 66.099V61.9918C62.6694 62.6942 65.3617 62.6942 67.8856 61.9918V66.099C67.8856 66.3763 67.9556 66.6497 68.0899 66.8976C68.2243 67.1456 68.4193 67.3613 68.6597 67.5276L74.0449 71.2545L64.0155 76.542L53.9862 71.2545L59.3714 67.5276ZM63.048 80.1492C63.3403 80.3033 63.6712 80.3844 64.0078 80.3844C64.3445 80.3844 64.6753 80.3033 64.9676 80.1492L74.5751 75.0831L72.1795 83.9564H55.8516L53.4482 75.0831L63.048 80.1492ZM67.8856 103.6C67.8856 104.306 67.6587 104.996 67.2334 105.584C66.8082 106.171 66.2037 106.629 65.4966 106.899C64.7894 107.169 64.0113 107.24 63.2605 107.102C62.5098 106.965 61.8202 106.624 61.279 106.125C60.7377 105.625 60.3691 104.989 60.2198 104.296C60.0705 103.603 60.1471 102.885 60.44 102.233C60.733 101.58 61.229 101.022 61.8654 100.63C62.5019 100.238 63.2501 100.028 64.0155 100.028C65.042 100.028 66.0263 100.404 66.7521 101.074C67.4779 101.744 67.8856 102.652 67.8856 103.6ZM64.0155 92.8851C58.1942 92.8784 52.5873 90.8568 48.3029 87.2198C44.0186 83.5827 41.3684 78.5949 40.8762 73.242H48.9589L52.4633 86.1761C52.5681 86.5622 52.8098 86.905 53.1498 87.1499C53.4899 87.3948 53.9089 87.5279 54.3403 87.5279H73.6908C74.1222 87.5279 74.5412 87.3948 74.8813 87.1499C75.2213 86.905 75.463 86.5622 75.5678 86.1761L79.0722 73.242H87.1549C86.6627 78.5949 84.0125 83.5827 79.7281 87.2198C75.4438 90.8568 69.8369 92.8784 64.0155 92.8851ZM100.781 92.8851C100.016 92.8851 99.2678 92.6756 98.6314 92.2832C97.9949 91.8908 97.4989 91.333 97.206 90.6804C96.9131 90.0278 96.8364 89.3097 96.9858 88.6169C97.1351 87.9241 97.5037 87.2877 98.0449 86.7882C98.5862 86.2887 99.2757 85.9486 100.026 85.8108C100.777 85.673 101.555 85.7437 102.263 86.014C102.97 86.2843 103.574 86.7421 103.999 87.3294C104.425 87.9167 104.652 88.6073 104.652 89.3136C104.652 90.2608 104.244 91.1693 103.518 91.839C102.792 92.5088 101.808 92.8851 100.781 92.8851Z" fill="black"/>
</g>
<defs>
<filter id="filter0_d" x="0" y="0" width="128" height="118.769" filterUnits="userSpaceOnUse" color-interpolation-filters="sRGB">
<feFlood flood-opacity="0" result="BackgroundImageFix"/>
<feColorMatrix in="SourceAlpha" type="matrix" values="0 0 0 0 0 0 0 0 0 0 0 0 0 0 0 0 0 0 127 0"/>
<feOffset dy="4"/>
<feGaussianBlur stdDeviation="2"/>
<feColorMatrix type="matrix" values="0 0 0 0 0 0 0 0 0 0 0 0 0 0 0 0 0 0 0.25 0"/>
<feBlend mode="normal" in2="BackgroundImageFix" result="effect1_dropShadow"/>
<feBlend mode="normal" in="SourceGraphic" in2="effect1_dropShadow" result="shape"/>
</filter>
</defs>
</svg>
