<svg width="120" height="120" viewBox="0 0 120 120" fill="none" xmlns="http://www.w3.org/2000/svg">
<g clip-path="url(#clip0)">
<path d="M110.791 28.5155L59.9999 38.7295L9.20854 28.5155C7.47182 27.6459 6.76869 25.5342 7.63588 23.7975L14.5617 9.95062C15.1874 8.69906 16.4976 7.93734 17.8921 8.01234C41.6226 9.27562 58.6664 15.8639 59.9999 16.2155C60.6984 16.0303 79.0851 9.23812 102.108 8.01234C103.505 7.93734 104.812 8.69906 105.438 9.95062L112.364 23.7975C113.231 25.5342 112.528 27.6459 110.791 28.5155V28.5155Z" fill="#FFC477"/>
<path d="M15.9033 10.6214L15.9032 10.6216L8.97788 24.4676C8.97784 24.4677 8.97779 24.4678 8.97774 24.4679C8.50653 25.4119 8.84407 26.5489 9.72825 27.0899L59.9999 37.1995L110.272 27.0899C111.156 26.5491 111.493 25.4124 111.022 24.4685L15.9033 10.6214ZM15.9033 10.6214C16.2622 9.90362 17.014 9.46728 17.8116 9.51017L17.8124 9.51022C38.6748 10.6208 54.2428 15.867 58.5365 17.3139C59.085 17.4988 59.4495 17.6216 59.6176 17.6659L60.001 17.767L60.3843 17.6654C60.4577 17.6459 60.664 17.5766 60.9945 17.4655C64.4374 16.3085 81.3675 10.6187 102.188 9.51022L102.188 9.51018C102.988 9.46725 103.737 9.9032 104.097 10.6214L104.097 10.6216L111.022 24.4676L15.9033 10.6214Z" stroke="black" stroke-opacity="0.8" stroke-width="3"/>
<path d="M110.791 28.5155L60 38.7295V16.2155C60.6984 16.0303 79.0852 9.23812 102.108 8.01234C103.505 7.93734 104.812 8.69906 105.438 9.95062L112.364 23.7975C113.231 25.5342 112.528 27.6459 110.791 28.5155V28.5155Z" fill="#FFC477"/>
<path d="M61.5 36.8978L110.272 27.0899C111.156 26.5491 111.493 25.4124 111.023 24.4685L61.5 36.8978ZM61.5 36.8978V17.2961C65.8689 15.8378 82.2435 10.5721 102.188 9.51022L102.188 9.51018C102.988 9.46725 103.738 9.9032 104.097 10.6214L104.097 10.6216L111.022 24.4676L61.5 36.8978Z" stroke="black" stroke-opacity="0.8" stroke-width="3"/>
<path d="M49.4531 27.6131C36.5227 23.7881 23.1539 21.8545 9.63984 21.8545H3.51562C1.575 21.8545 0 23.4295 0 25.3701V95.6826C0 97.6232 1.575 99.1982 3.51562 99.1982H9.63984C23.3883 99.1982 36.9797 101.305 50.0695 105.468C50.6672 105.658 51.2625 105.85 51.8578 106.049C54.1312 106.806 56.4844 105.112 56.4844 102.714V32.4014L49.4531 27.6131Z" fill="#66F2CB"/>
<path d="M9.63984 23.3545C22.932 23.3545 36.081 25.2451 48.8032 28.9853L54.9844 33.1947V102.714C54.9844 104.086 53.6362 105.059 52.3338 104.627C51.7287 104.424 51.1255 104.229 50.5236 104.038C37.2867 99.8289 23.5422 97.6982 9.63984 97.6982H3.51562C2.40343 97.6982 1.5 96.7948 1.5 95.6826V25.3701C1.5 24.2579 2.40343 23.3545 3.51562 23.3545H9.63984Z" stroke="black" stroke-opacity="0.8" stroke-width="3"/>
<path d="M116.484 21.8545H110.36C95.2397 21.8545 80.336 24.2683 65.9203 29.0662L63.5156 32.4014V102.714C63.5156 105.114 65.8711 106.806 68.1422 106.049C68.7398 105.85 69.3375 105.655 69.9352 105.468C83.0227 101.305 96.6117 99.1982 110.36 99.1982H116.484C118.425 99.1982 120 97.6232 120 95.6826V25.3701C120 23.4295 118.425 21.8545 116.484 21.8545V21.8545Z" fill="#66F2CB"/>
<path d="M110.36 23.3545H116.484C117.597 23.3545 118.5 24.2579 118.5 25.3701V95.6826C118.5 96.7948 117.597 97.6982 116.484 97.6982H110.36C96.4587 97.6982 82.7173 99.8287 69.4834 104.037C68.8766 104.228 68.2712 104.425 67.6678 104.626C66.3665 105.06 65.0156 104.088 65.0156 102.714V32.8857L66.8529 30.3376C80.9734 25.6914 95.5613 23.3545 110.36 23.3545Z" stroke="black" stroke-opacity="0.8" stroke-width="3"/>
<path d="M65.9203 29.0662C64.718 29.467 63.8438 30.4725 63.5906 31.6772C63.5883 31.6889 63.5859 31.7006 63.5836 31.7123C63.5836 31.717 63.5812 31.724 63.5789 31.7287C63.1406 33.8826 61.4437 34.649 60 34.649C58.5563 34.649 56.8594 33.8826 56.4211 31.7287C56.4187 31.724 56.4164 31.717 56.4164 31.7123C56.407 31.6678 56.3977 31.6209 56.3859 31.5717C56.1047 30.4139 55.2469 29.4553 54.0797 29.0662C52.5445 28.5553 51.0023 28.0701 49.4531 27.6131V102.714C49.4531 103.539 49.6617 104.493 50.0695 105.468C51.3844 108.615 54.7828 111.993 60 111.993C65.2195 111.993 68.6203 108.622 69.9352 105.468C70.3406 104.495 70.5469 103.541 70.5469 102.714V27.6131C68.9977 28.0701 67.4555 28.5553 65.9203 29.0662V29.0662Z" fill="#1746A0"/>
<path d="M70.5469 27.6131V102.714C70.5469 103.541 70.3406 104.495 69.9352 105.468C68.6203 108.622 65.2195 111.993 60 111.993V34.649C61.4437 34.649 63.1406 33.8826 63.5789 31.7287C63.5812 31.724 63.5836 31.717 63.5836 31.7123C63.5859 31.7006 63.5883 31.6889 63.5906 31.6772C63.8438 30.4725 64.718 29.467 65.9203 29.0662C67.4555 28.5553 68.9977 28.0701 70.5469 27.6131V27.6131Z" fill="#1746A0"/>
</g>
<defs>
<clipPath id="clip0">
<rect width="120" height="120" fill="white"/>
</clipPath>
</defs>
</svg>
