<svg version="1.1" id="Layer_1" xmlns="http://www.w3.org/2000/svg" xmlns:xlink="http://www.w3.org/1999/xlink" x="0px" y="0px"
	 viewBox="0 0 100 100" style="enable-background:new 0 0 100 100;" xml:space="preserve">
<style type="text/css">
	<!-- .st0{fill:#FFFFFF;} -->
	.dark{
		fill: #1345A2;
	}
	.light {
		fill: #65F2CD;
	}
</style>
<path class="dark" d="M49.78,2.01c10.37,0,20.73-0.03,31.1,0.01c9.7,0.03,17.06,7.34,17.08,17.1c0.05,20.85,0.06,41.71,0,62.56
	c-0.03,9.57-7.28,16.93-16.84,16.98c-20.98,0.1-41.96,0.1-62.93,0C8.68,98.6,1.41,91.64,1.32,82.1C1.12,60.88,1.1,39.65,1.34,18.43
	C1.45,8.75,8.9,2.04,18.68,2.01C29.05,1.99,39.41,2.01,49.78,2.01z M16.3,44.58c3.58-4.74,7.81-5.32,12.22-5.38
	c1.97-0.03,3.95-0.08,5.92-0.08c11.96,0.02,23.92,0.09,35.88,0.06c8.06-0.02,12.62-4.56,12.78-12.56c0.05-2.34-0.1-4.69,0.03-7.03
	c0.13-2.43-0.91-3.25-3.27-3.2c-5.05,0.11-10.11,0.03-15.17,0.03c-12.08,0-24.17-0.05-36.25,0.03c-6.7,0.05-11.51,3.62-12.04,9.63
	C15.9,31.78,16.3,37.57,16.3,44.58z M60.56,41.84c-1.65,0-2.99,0-4.33,0C46.01,41.86,35.79,41.72,25.58,42
	c-4.32,0.12-8.51,3.74-8.9,8.11c-0.55,6.26-0.14,12.61-0.14,19.52c2.99-4.27,6.95-4.94,11.32-4.87c7.26,0.11,14.53,0.05,21.79-0.02
	c5.76-0.06,10.13-3.45,10.8-9.09C60.97,51.31,60.56,46.86,60.56,41.84z M31.64,67.13c-1.73,0-3.47-0.15-5.18,0.03
	c-5.95,0.61-10.48,5.72-10.35,11.54c0.12,5.73,4.61,10.5,10.44,11.09c5.63,0.57,10.79-3.44,11.86-9.43
	c0.36-2.05,0.36-4.18,0.34-6.27C38.65,65.94,39.83,67.22,31.64,67.13z"/>
<path class="light" d="M16.3,44.58c0-7.01-0.4-12.8,0.11-18.51c0.54-6.01,5.34-9.59,12.04-9.63c12.08-0.08,24.17-0.03,36.25-0.03
	c5.06,0,10.11,0.08,15.17-0.03c2.36-0.05,3.4,0.77,3.27,3.2c-0.13,2.34,0.01,4.69-0.03,7.03c-0.16,8.01-4.72,12.54-12.78,12.56
	c-11.96,0.03-23.92-0.04-35.88-0.06c-1.97,0-3.95,0.05-5.92,0.08C24.11,39.26,19.88,39.83,16.3,44.58z"/>
<path class="light" d="M60.56,41.84c0,5.03,0.42,9.48-0.1,13.81c-0.67,5.64-5.04,9.03-10.8,9.09c-7.26,0.07-14.53,0.13-21.79,0.02
	c-4.37-0.06-8.33,0.6-11.32,4.87c0-6.91-0.41-13.26,0.14-19.52c0.38-4.37,4.57-7.99,8.9-8.11c10.21-0.28,20.43-0.14,30.65-0.16
	C57.57,41.83,58.91,41.84,60.56,41.84z"/>
<path class="light" d="M31.64,67.13c8.18,0.09,7.01-1.19,7.09,6.96c0.02,2.09,0.03,4.22-0.34,6.27c-1.06,5.98-6.22,10-11.86,9.43
	c-5.83-0.59-10.32-5.35-10.44-11.09c-0.12-5.83,4.41-10.93,10.35-11.54C28.17,66.98,29.91,67.13,31.64,67.13z"/>
</svg>