<svg width="120" height="120" viewBox="0 0 120 120" fill="none" xmlns="http://www.w3.org/2000/svg">
<g clip-path="url(#clip0)">
<path d="M84.0409 35.1361L105.805 62.8024L117.647 52.6108L97.5614 26.521L84.0409 35.1361Z" fill="#1746A0"/>
<path d="M38.0887 35.1196L14.1953 64.2288L2.35291 54.0381L24.5682 26.521L38.0887 35.1196Z" fill="#1746A0"/>
<path d="M105.805 62.8024L84.0408 35.1361H66.4224L52.6675 39.1077L38.0887 35.1196L14.1953 64.2288L26.0037 80.1416L24.7559 81.3904C22.4268 83.7186 22.4268 87.4933 24.7559 89.8224C26.7627 91.8292 29.8434 92.1048 32.1478 90.6519L32.1378 90.9302C29.8096 93.2593 29.8096 97.034 32.1378 99.3631C34.4568 101.682 38.2105 101.69 40.5414 99.3897L40.5386 99.4126C38.2095 101.742 38.2095 105.516 40.5386 107.845C42.8668 110.174 46.6425 110.174 48.9706 107.845L50.1132 106.703L50.1077 106.81C47.7786 109.138 47.7786 112.914 50.1077 115.242C52.4359 117.571 56.2116 117.571 58.5397 115.242L61.3211 112.461C61.626 112.157 62.0133 111.616 62.4518 110.903C62.1643 111.466 61.788 111.994 61.3211 112.461L61.3055 112.476L63.5751 114.305C65.9042 116.634 69.679 116.634 72.0081 114.305C74.3363 111.976 74.3363 108.201 72.0081 105.873L72.0163 105.864C74.3445 108.192 78.1201 108.192 80.4483 105.864C82.7774 103.535 82.7774 99.7605 80.4483 97.4314L80.4575 97.4231C82.7857 99.7513 86.5613 99.7513 88.8895 97.4231C91.2177 95.0949 91.2177 91.3193 88.8895 88.9911L88.8977 88.982C91.2268 91.3111 95.0015 91.3111 97.3306 88.982C99.6588 86.6538 99.6588 82.879 97.3306 80.5499L105.805 62.8024Z" fill="#66F2CB"/>
<path d="M119.511 51.178L99.4258 25.0873C98.6824 24.1223 97.3265 23.8843 96.2984 24.538L83.3308 32.785H66.4183C66.1995 32.785 65.9816 32.8317 65.771 32.8931L52.6579 36.6678L39.0513 32.9462L25.8302 24.538C24.8195 23.8953 23.4883 24.1132 22.7367 25.0452L0.521376 52.5623C-0.276964 53.551 -0.145128 54.9948 0.818007 55.8234L12.4617 65.8438L22.9079 79.921C19.8527 83.1757 19.9122 88.309 23.091 91.4887C24.5 92.8967 26.2916 93.6923 28.1346 93.8773C28.0705 94.2948 28.0376 94.7186 28.0376 95.1489C28.0376 97.37 28.9027 99.4583 30.4729 101.028C32.0439 102.6 34.1322 103.465 36.3533 103.465C36.3835 103.465 36.4128 103.463 36.4421 103.462C36.4412 103.519 36.4384 103.575 36.4384 103.631C36.4384 105.852 37.3036 107.941 38.8737 109.512C40.4448 111.082 42.5331 111.947 44.7542 111.947C45.1927 111.947 45.6267 111.911 46.0524 111.845C46.2327 113.695 47.0302 115.495 48.4437 116.908C50.0642 118.53 52.1937 119.34 54.3233 119.34C56.4528 119.34 58.5823 118.53 60.2037 116.908L61.4754 115.637L62.0091 116.067C63.6168 117.624 65.7042 118.402 67.7916 118.402C69.9211 118.402 72.0506 117.592 73.6711 115.971C75.3255 114.316 76.1357 112.133 76.1018 109.96C78.2735 109.993 80.4579 109.184 82.1123 107.531C83.7648 105.877 84.575 103.695 84.543 101.524C86.8053 101.559 88.9513 100.691 90.5525 99.0894C92.2069 97.435 93.0171 95.2515 92.9832 93.0789C95.1567 93.1119 97.3393 92.3026 98.9937 90.6482C101.817 87.8247 102.181 83.4604 100.087 80.2387L107.714 64.2645L119.181 54.397C120.129 53.5812 120.273 52.1677 119.511 51.178ZM25.0777 29.6365L34.5845 35.6818L13.9036 60.8771L5.61629 53.7442L25.0777 29.6365ZM26.4189 83.0557L29.2882 80.1865C29.3751 80.0995 29.4667 80.0171 29.5601 79.9402C30.1213 79.4824 30.8006 79.2096 31.5202 79.1446C31.5404 79.1428 31.5614 79.1428 31.5816 79.1419C31.6841 79.1336 31.7866 79.1281 31.8901 79.129C32.8734 79.1428 33.7871 79.5447 34.4646 80.2597C35.7939 81.6651 35.7225 83.9612 34.3053 85.3784L31.523 88.1607C30.1158 89.5679 27.8261 89.5679 26.4189 88.1607C25.0117 86.7526 25.0117 84.4629 26.4189 83.0557ZM33.8008 97.7005C33.1187 97.0194 32.7434 96.113 32.7434 95.1489C32.7434 94.1849 33.1187 93.2785 33.8008 92.5965L39.3645 87.0328C40.4301 85.9671 42.1055 85.6751 43.4679 86.3242C44.8723 86.9934 45.6624 88.5178 45.4564 90.0513C45.3465 90.8698 44.9657 91.6406 44.3815 92.2257L38.9058 97.7005C38.2237 98.3826 37.3173 98.7579 36.3533 98.7579C35.3892 98.7579 34.4829 98.3826 33.8008 97.7005ZM42.2017 106.183C41.5196 105.502 41.1442 104.595 41.1442 103.631C41.1442 102.667 41.5196 101.761 42.2017 101.079L47.7644 95.5152C48.9043 94.3762 50.7326 94.1309 52.1278 94.9429C53.4022 95.6845 54.0697 97.1402 53.8508 98.5904C53.7309 99.3878 53.3519 100.138 52.7815 100.708L47.3067 106.183C46.6246 106.865 45.7182 107.24 44.7542 107.24C43.7901 107.24 42.8837 106.865 42.2017 106.183ZM51.7708 113.58C50.3636 112.173 50.3636 109.883 51.7708 108.476L54.64 105.607C54.727 105.52 54.8176 105.439 54.911 105.362C54.9138 105.36 54.9156 105.358 54.9174 105.356C55.3844 104.977 55.9328 104.724 56.5178 104.613C56.5315 104.611 56.5452 104.609 56.559 104.607C56.6597 104.589 56.7622 104.574 56.8648 104.565C56.906 104.561 56.9472 104.561 56.9893 104.559C57.0735 104.554 57.1568 104.549 57.242 104.55C58.2243 104.563 59.1389 104.964 59.8164 105.68C59.8997 105.768 59.9776 105.86 60.049 105.954C61.1311 107.368 60.9856 109.47 59.6425 110.814L56.8748 113.581C55.4677 114.988 53.1779 114.988 51.7708 113.58ZM95.6657 87.3203C94.2586 88.7283 91.9688 88.7274 90.5617 87.3203C90.5104 87.269 90.4564 87.2214 90.4015 87.1765L75.2714 71.8872C74.3568 70.9634 72.8673 70.9561 71.9435 71.8707C71.0197 72.7844 71.0124 74.274 71.9261 75.1978L87.22 90.651C87.2218 90.6528 87.2237 90.6546 87.2255 90.6564C88.6327 92.0636 88.6327 94.3543 87.2255 95.7614C86.5434 96.4435 85.637 96.8189 84.673 96.8189C83.708 96.8189 82.8017 96.4435 82.1205 95.7614L71.8895 85.4242C70.9758 84.5004 69.4862 84.4931 68.5625 85.4068C67.6387 86.3214 67.6314 87.811 68.5451 88.7348L78.6195 98.9136C78.6708 98.9777 78.7257 99.039 78.7843 99.0976C80.1915 100.505 80.1915 102.795 78.7843 104.203C77.3762 105.61 75.0856 105.609 73.6784 104.202L68.0946 98.5593C67.18 97.6355 65.6905 97.6273 64.7667 98.5419C63.8429 99.4556 63.8356 100.945 64.7493 101.869L70.1775 107.353C70.2287 107.417 70.2837 107.479 70.3432 107.538C71.7503 108.945 71.7503 111.236 70.3432 112.643C68.936 114.051 66.6463 114.05 65.2391 112.643C65.077 112.481 64.8866 112.356 64.7053 112.217C64.5515 112.1 64.5113 112.018 64.5882 111.832C64.666 111.642 64.7822 111.471 64.8601 111.281C64.9461 111.068 65.0157 110.849 65.0835 110.63C65.4442 109.467 65.5504 108.216 65.3883 107.01C65.077 104.694 63.8036 102.605 61.8736 101.283C60.8308 100.57 59.6242 100.102 58.3736 99.9262C58.9796 97.2528 58.2518 94.3543 56.3585 92.3538C54.8003 90.7077 52.6955 89.784 50.4314 89.7528C50.349 89.7519 50.2666 89.7519 50.1832 89.7528C50.2336 87.5922 49.4481 85.4453 47.9585 83.8715C46.3994 82.2254 44.2946 81.3016 42.0314 81.2705C41.3585 81.2613 40.6792 81.3327 40.0236 81.4838C39.7435 79.5346 38.7611 77.731 37.2734 76.441C35.7948 75.1611 33.9354 74.4507 31.9551 74.4232C29.8704 74.393 27.8224 75.1621 26.2742 76.5601L17.1785 64.3039L38.9387 37.7939L45.8739 39.6909L36.8165 55.6732C35.7216 57.6059 35.4451 59.8489 36.0374 61.9894C36.6298 64.1309 38.0196 65.9125 39.9522 67.0075C40.0731 67.0761 40.1948 67.1411 40.3184 67.2034C40.3276 67.208 40.3368 67.2125 40.3468 67.2171C40.6718 67.3792 41.006 67.5183 41.3447 67.6355C42.9222 68.1821 44.626 68.2416 46.2694 67.7875C48.4099 67.1951 50.1915 65.8044 51.2865 63.8727L57.1724 53.486L67.6817 54.2313L95.6666 82.2153C97.0729 83.6234 97.0729 85.9131 95.6657 87.3203ZM96.6408 76.5344L70.388 50.2826C70.3386 50.2322 70.2864 50.1846 70.2324 50.1398C69.8543 49.8248 69.3855 49.6344 68.8911 49.5996L56.0234 48.6868C55.1335 48.6255 54.2491 49.0988 53.8097 49.8743L47.1922 61.5527C46.7171 62.3914 45.9434 62.9947 45.0142 63.252C44.0858 63.5092 43.1117 63.3884 42.2722 62.9132C41.4336 62.4381 40.8302 61.6644 40.573 60.7352C40.3157 59.8059 40.4356 58.8318 40.9117 57.9932L49.7456 42.4026L53.3253 41.3727C53.3491 41.3654 53.372 41.3562 53.3958 41.3489L66.7561 37.4908H82.8987L103.051 63.1091L96.6408 76.5344ZM106.134 59.4159L87.4974 35.712L97.0088 29.6631L114.423 52.283L106.134 59.4159Z" fill="black"/>
<path d="M72.6993 28.3667C73.3018 28.3667 73.9042 28.1369 74.3638 27.6773L90.4368 11.6043C91.356 10.6851 91.356 9.19555 90.4368 8.27636C89.5176 7.35717 88.028 7.35717 87.1088 8.27636L71.0358 24.3494C70.1166 25.2686 70.1166 26.7581 71.0358 27.6773C71.4954 28.1369 72.0978 28.3667 72.6993 28.3667Z" fill="black"/>
<path d="M45.6363 27.6773C46.0959 28.1369 46.6983 28.3667 47.3007 28.3667C47.9022 28.3667 48.5047 28.1369 48.9642 27.6773C49.8834 26.7581 49.8834 25.2686 48.9642 24.3494L32.8912 8.27636C31.972 7.35717 30.4825 7.35717 29.5633 8.27636C28.6441 9.19555 28.6441 10.6851 29.5633 11.6043L45.6363 27.6773Z" fill="black"/>
<path d="M60 28.3667C61.2991 28.3667 62.3529 27.3129 62.3529 26.0138V12.7121C62.3529 11.413 61.2991 10.3592 60 10.3592C58.7009 10.3592 57.6471 11.413 57.6471 12.7121V26.0138C57.6471 27.3129 58.7009 28.3667 60 28.3667Z" fill="black"/>
<path d="M57.8284 4.18395C58.2019 5.08941 59.133 5.68359 60.1154 5.63232C61.0858 5.58197 61.9382 4.92645 62.2385 4.00268C62.5397 3.07159 62.2119 2.01049 61.4319 1.41723C60.6363 0.811152 59.5267 0.777277 58.6945 1.32751C57.7661 1.94091 57.4063 3.16223 57.8284 4.18395Z" fill="black"/>
</g>
<defs>
<clipPath id="clip0">
<rect width="120" height="120" fill="white"/>
</clipPath>
</defs>
</svg>
