<?xml version="1.0" encoding="utf-8"?>
<!-- Generator: Adobe Illustrator 24.0.3, SVG Export Plug-In . SVG Version: 6.00 Build 0)  -->
<svg version="1.1" xmlns="http://www.w3.org/2000/svg" xmlns:xlink="http://www.w3.org/1999/xlink" x="0px" y="0px"
	 viewBox="0 0 500 500" style="enable-background:new 0 0 500 500;" xml:space="preserve">
<style type="text/css">
	.st0{fill:#FFFFFF;}
	.st1{fill:#C3F4F3;}
	.st2{fill:#6AC7CE;}
	.st3{fill:#F77F26;}
	.st4{fill:#DD2F4C;}
	.st5{fill:#57B7CE;}
	.st6{fill:#F99223;}
	.st7{fill:#FF2E56;}
	.st8{fill:#B92650;}
	.st9{fill:#FF82A0;}
	.st10{fill:#EAE6FF;}
	.st11{fill:#FCC922;}
	.st12{fill:#D67A1E;}
	.st13{fill:#FFA750;}
	.st14{fill:#770FBA;}
	.st15{fill:#5A0E96;}
	.st16{fill:#9839E2;}
	.st17{fill:#5652E5;}
	.st18{fill:#2C2256;}
	.st19{fill:#1C173D;}
	.st20{fill:#251E4F;}
	.st21{fill:#D7D4FF;}
	.st22{fill:#B6B6DD;}
	.st23{fill:#1F143F;}
	.st24{fill:#FEFEFC;}
	.st25{fill:#C7C7EF;}
	.st26{fill:#817DA0;}
	.st27{fill:#AFAED3;}
	.st28{fill:#FFCD52;}
	.st29{fill:#FCE7B9;}
	.st30{fill:#EFB025;}
	.st31{fill:#FCD3B9;}
	.st32{fill:#323E49;}
	.st33{fill:#2C253D;}
	.st34{fill:#FCBD8D;}
	.st35{fill:#FFA44A;}
	.st36{fill:#DF3132;}
	.st37{fill:#3C4454;}
</style>
<g id="OBJECTS">
	<path class="st1" d="M62.9,474.94c0,0-53.04-76.85-12.36-169.32s60.25-83.98,49.56-131.47s2.33-90.8,50.6-119.25
		c61.73-36.37,247.77-25.99,279.6,97.22c31.16,120.62-17.07,163.6,10.69,194.32c27.76,30.71,79.5,68.62,32.91,128.51H62.9z"/>
	<g>
		<g>
			
				<ellipse transform="matrix(0.4502 -0.8929 0.8929 0.4502 -3.5326 474.1615)" class="st2" cx="383.29" cy="239.95" rx="88.79" ry="51.24"/>
		</g>
		<g>
			
				<rect x="304.25" y="238.84" transform="matrix(0.4501 -0.893 0.893 0.4501 -3.1387 474.1715)" class="st0" width="158.38" height="1.6"/>
		</g>
		<g>
			<polygon class="st0" points="400.53,205.74 428.91,195.79 428.38,194.29 401.57,203.69 393.19,176.54 391.66,177.01 			"/>
		</g>
		<g>
			<polygon class="st0" points="388.96,228.69 417.34,218.74 416.81,217.23 390,226.63 381.62,199.49 380.09,199.96 			"/>
		</g>
		<g>
			<polygon class="st0" points="377.39,251.63 405.77,241.69 405.24,240.18 378.43,249.58 370.05,222.44 368.52,222.91 			"/>
		</g>
	</g>
	<g>
		<g>
			<path class="st3" d="M442.11,326.87c-24.56,12.8-52.95,10.62-74.76-3.22c1.16-25.81,15.64-50.32,40.2-63.12
				c24.56-12.8,52.95-10.62,74.76,3.22C481.15,289.56,466.68,314.07,442.11,326.87z"/>
		</g>
		<g>
			
				<rect x="367.25" y="292.99" transform="matrix(0.8868 -0.4621 0.4621 0.8868 -87.5599 229.6711)" class="st0" width="115.62" height="1.16"/>
		</g>
		<g>
			<polygon class="st0" points="449.63,280.77 470.69,286.97 471.02,285.85 451.12,280 457.72,260.34 456.62,259.97 			"/>
		</g>
		<g>
			<polygon class="st0" points="433,289.44 454.05,295.64 454.38,294.52 434.49,288.67 441.09,269.01 439.98,268.64 			"/>
		</g>
		<g>
			<polygon class="st0" points="416.36,298.11 437.41,304.3 437.74,303.19 417.85,297.33 424.45,277.67 423.35,277.3 			"/>
		</g>
	</g>
	<g>
		<g>
			
				<ellipse transform="matrix(0.6874 -0.7262 0.7262 0.6874 -184.77 159.121)" class="st4" cx="92.47" cy="294.22" rx="51.24" ry="88.79"/>
		</g>
		<g>
			
				<rect x="91.42" y="214.78" transform="matrix(0.6875 -0.7262 0.7262 0.6875 -184.6564 158.8233)" class="st0" width="1.6" height="158.38"/>
		</g>
		<g>
			<polygon class="st0" points="64.65,267.88 34.59,268.14 34.57,266.54 62.98,266.3 61.66,237.92 63.26,237.85 			"/>
		</g>
		<g>
			<polygon class="st0" points="83.31,285.55 53.25,285.8 53.24,284.21 81.64,283.96 80.33,255.59 81.92,255.51 			"/>
		</g>
		<g>
			<polygon class="st0" points="101.98,303.21 71.91,303.47 71.9,301.87 100.31,301.63 98.99,273.25 100.58,273.18 			"/>
		</g>
	</g>
	<g>
		<g>
			
				<ellipse transform="matrix(0.1341 -0.991 0.991 0.1341 -293.6176 381.7048)" class="st5" cx="71.61" cy="358.86" rx="37.4" ry="64.82"/>
		</g>
		<g>
			
				<rect x="70.77" y="301.02" transform="matrix(0.1343 -0.9909 0.9909 0.1343 -293.8088 381.3483)" class="st0" width="1.16" height="115.62"/>
		</g>
		<g>
			<polygon class="st0" points="43.89,355.11 26.19,368.08 25.5,367.14 42.23,354.89 29.36,338.63 30.27,337.91 			"/>
		</g>
		<g>
			<polygon class="st0" points="62.48,357.63 44.78,370.59 44.09,369.65 60.82,357.4 47.94,341.15 48.86,340.42 			"/>
		</g>
		<g>
			<polygon class="st0" points="81.07,360.14 63.36,373.11 62.68,372.17 79.41,359.92 66.53,343.66 67.45,342.94 			"/>
		</g>
	</g>
	<path class="st6" d="M95.28,403.05c0,0,22.71-2.73,30.96-10.36l0.72,2.25c0,0-15.71,13.99-28.33,15.09
		C86.02,411.13,95.28,403.05,95.28,403.05z"/>
	<g>
		<g>
			<path class="st7" d="M230.27,421.71h-96.35c-14.7,0-26.61,11.91-26.61,26.61l0,0c0,14.7,11.91,26.61,26.61,26.61h96.35V421.71z"
				/>
			<path class="st8" d="M129.39,466.44c-8.45,0-15.97-3.94-20.84-10.08c3.41,10.77,13.48,18.57,25.37,18.57h96.35v-8.5H129.39z"/>
			<path class="st0" d="M355.45,466.44v-36.23H228.4c-10,0-18.11,8.11-18.11,18.11l0,0c0,10,8.11,18.11,18.11,18.11H355.45z"/>
			<path class="st9" d="M228.4,466.44c-10,0-18.11-8.11-18.11-18.11l0,0c0-10,8.11-18.11,18.11-18.11h133.52
				c2.35,0,4.25-1.9,4.25-4.25l0,0c0-2.35-1.9-4.25-4.25-4.25H226.58c-14.7,0-26.61,11.91-26.61,26.61v0
				c0,14.7,11.91,26.61,26.61,26.61h135.34c2.35,0,4.25-1.9,4.25-4.25l0,0c0-2.35-1.9-4.25-4.25-4.25H228.4z"/>
			<path class="st10" d="M222.24,446.17c-0.79,0-1.42,0.64-1.42,1.42c0,0.79,0.64,1.42,1.42,1.42h133.21v-2.85H222.24z"/>
			<polygon class="st11" points="279.81,449.02 279.81,462.08 285.64,457.24 291.48,462.08 291.48,449.02 			"/>
			<path class="st10" d="M339.36,440.07h-42.11c-0.55,0-1-0.45-1-1v-0.84c0-0.55,0.45-1,1-1h42.11c0.55,0,1,0.45,1,1v0.84
				C340.36,439.62,339.91,440.07,339.36,440.07z"/>
		</g>
		<g>
			<path class="st6" d="M199.96,341.88L199.96,341.88c0-14.7,11.91-26.61,26.61-26.61h-92.65c-14.7,0-26.61,11.91-26.61,26.61l0,0
				c0,14.7,11.91,26.61,26.61,26.61h92.65C211.88,368.49,199.96,356.58,199.96,341.88z"/>
			<path class="st12" d="M207.09,359.99h-77.69c-8.45,0-15.97-3.94-20.84-10.08c0.02,0.05,0.03,0.1,0.05,0.15
				c0.16,0.5,0.34,0.99,0.53,1.47c0.06,0.16,0.12,0.32,0.19,0.47c0.08,0.2,0.17,0.4,0.26,0.6c0.07,0.16,0.14,0.31,0.21,0.47
				c0.09,0.2,0.19,0.39,0.28,0.59c0.08,0.15,0.15,0.3,0.23,0.45c0.1,0.19,0.2,0.39,0.3,0.58c0.08,0.15,0.17,0.3,0.26,0.45
				c0.19,0.33,0.39,0.66,0.59,0.98c0.1,0.15,0.19,0.3,0.29,0.45c0.12,0.17,0.23,0.34,0.35,0.51c0.1,0.15,0.21,0.3,0.31,0.44
				c0.12,0.17,0.24,0.33,0.37,0.49c0.11,0.15,0.23,0.29,0.35,0.44c0.12,0.16,0.25,0.31,0.37,0.46c0.14,0.17,0.28,0.33,0.42,0.49
				c0.2,0.22,0.4,0.44,0.6,0.66c0.16,0.17,0.31,0.34,0.48,0.5c0.13,0.13,0.26,0.26,0.4,0.39c0.15,0.14,0.3,0.29,0.45,0.42
				c0.14,0.13,0.27,0.25,0.41,0.37c0.16,0.14,0.32,0.28,0.48,0.41c0.14,0.11,0.27,0.23,0.41,0.34c0.19,0.16,0.39,0.31,0.58,0.46
				c0.11,0.09,0.22,0.17,0.33,0.26c0.3,0.22,0.6,0.43,0.9,0.64c0.13,0.09,0.26,0.17,0.38,0.25c0.2,0.13,0.4,0.26,0.61,0.39
				c0.14,0.09,0.28,0.17,0.42,0.26c0.2,0.12,0.41,0.24,0.61,0.35c0.14,0.08,0.28,0.16,0.42,0.23c0.24,0.13,0.48,0.25,0.72,0.37
				c0.11,0.06,0.22,0.11,0.33,0.17c0.35,0.17,0.7,0.33,1.05,0.48c0.11,0.05,0.21,0.09,0.32,0.13c0.26,0.11,0.52,0.21,0.79,0.31
				c0.14,0.05,0.28,0.1,0.42,0.15c0.24,0.09,0.49,0.17,0.73,0.25c0.14,0.05,0.28,0.09,0.42,0.13c0.27,0.08,0.54,0.16,0.81,0.23
				c0.12,0.03,0.24,0.07,0.36,0.1c0.39,0.1,0.78,0.19,1.17,0.27c0.07,0.01,0.14,0.02,0.21,0.04c0.33,0.07,0.66,0.13,1,0.18
				c0.14,0.02,0.27,0.04,0.41,0.06c0.27,0.04,0.55,0.07,0.83,0.11c0.15,0.02,0.29,0.03,0.44,0.05c0.29,0.03,0.57,0.05,0.86,0.07
				c0.13,0.01,0.26,0.02,0.39,0.02c0.42,0.02,0.84,0.03,1.26,0.03h92.65C218.88,368.49,211.95,365.22,207.09,359.99z"/>
			<path class="st0" d="M355.45,359.99v-36.23H228.4c-10,0-18.11,8.11-18.11,18.11l0,0c0,10,8.11,18.11,18.11,18.11H355.45z"/>
			<path class="st13" d="M228.4,359.99c-10,0-18.11-8.11-18.11-18.11l0,0c0-10,8.11-18.11,18.11-18.11h133.52
				c2.35,0,4.25-1.9,4.25-4.25l0,0c0-2.35-1.9-4.25-4.25-4.25H226.58c-14.7,0-26.61,11.91-26.61,26.61l0,0
				c0,14.7,11.91,26.61,26.61,26.61h135.34c2.35,0,4.25-1.9,4.25-4.25l0,0c0-2.35-1.9-4.25-4.25-4.25H228.4z"/>
			<path class="st10" d="M222.24,342.57c-0.79,0-1.42-0.64-1.42-1.42c0-0.79,0.64-1.42,1.42-1.42h133.21v2.85H222.24z"/>
			<path class="st10" d="M340.35,336.99h-41.27c-0.79,0-1.42-0.64-1.42-1.42l0,0c0-0.79,0.64-1.42,1.42-1.42h41.27
				c0.79,0,1.42,0.64,1.42,1.42l0,0C341.77,336.35,341.14,336.99,340.35,336.99z"/>
			<path class="st10" d="M271.81,349.27h-17.55c-0.79,0-1.42-0.64-1.42-1.42l0,0c0-0.79,0.64-1.42,1.42-1.42h17.55
				c0.79,0,1.42,0.64,1.42,1.42l0,0C273.23,348.64,272.6,349.27,271.81,349.27z"/>
			<polygon class="st7" points="232.61,342.57 232.61,355.64 238.44,350.79 244.28,355.64 244.28,342.57 			"/>
		</g>
		<g>
			<path class="st14" d="M345.16,368.49h-92.65c14.7,0,26.61,11.91,26.61,26.61v0c0,14.7-11.91,26.61-26.61,26.61h92.65
				c14.7,0,26.61-11.91,26.61-26.61v0C371.77,380.4,359.86,368.49,345.16,368.49z"/>
			<path class="st15" d="M346.81,421.66c0.29-0.02,0.57-0.04,0.86-0.07c0.15-0.01,0.3-0.03,0.44-0.05c0.28-0.03,0.55-0.07,0.83-0.11
				c0.14-0.02,0.27-0.04,0.41-0.06c0.33-0.05,0.67-0.11,1-0.18c0.07-0.01,0.14-0.02,0.21-0.04c0.39-0.08,0.78-0.17,1.17-0.27
				c0.12-0.03,0.24-0.06,0.36-0.1c0.27-0.07,0.54-0.15,0.81-0.23c0.14-0.04,0.28-0.09,0.43-0.13c0.25-0.08,0.49-0.16,0.73-0.25
				c0.14-0.05,0.28-0.1,0.42-0.15c0.26-0.1,0.53-0.2,0.79-0.31c0.11-0.04,0.22-0.09,0.32-0.13c0.35-0.15,0.71-0.31,1.05-0.48
				c0.11-0.05,0.22-0.11,0.34-0.17c0.24-0.12,0.48-0.24,0.71-0.37c0.14-0.08,0.28-0.15,0.42-0.23c0.2-0.11,0.41-0.23,0.61-0.35
				c0.14-0.08,0.29-0.17,0.43-0.26c0.2-0.13,0.4-0.26,0.6-0.39c0.13-0.08,0.26-0.17,0.39-0.25c0.31-0.21,0.61-0.42,0.9-0.64
				c0.11-0.08,0.22-0.17,0.34-0.26c0.19-0.15,0.39-0.3,0.58-0.45c0.14-0.11,0.27-0.23,0.41-0.34c0.16-0.13,0.32-0.27,0.47-0.41
				c0.14-0.12,0.28-0.25,0.42-0.38c0.15-0.14,0.3-0.28,0.44-0.42c0.13-0.13,0.27-0.26,0.4-0.39c0.16-0.16,0.31-0.33,0.47-0.49
				c0.21-0.22,0.41-0.45,0.61-0.68c0.14-0.16,0.28-0.32,0.41-0.48c0.13-0.15,0.25-0.31,0.38-0.47c0.11-0.14,0.23-0.29,0.34-0.43
				c0.13-0.16,0.25-0.33,0.37-0.5c0.11-0.14,0.21-0.29,0.31-0.44c0.12-0.17,0.24-0.34,0.36-0.52c0.1-0.15,0.19-0.3,0.29-0.45
				c0.21-0.33,0.41-0.67,0.61-1.01c0.08-0.14,0.17-0.28,0.25-0.43c0.11-0.19,0.21-0.39,0.31-0.58c0.08-0.15,0.15-0.3,0.23-0.45
				c0.1-0.2,0.19-0.4,0.28-0.59c0.07-0.15,0.14-0.31,0.21-0.46c0.09-0.2,0.18-0.4,0.26-0.61c0.06-0.15,0.12-0.31,0.18-0.47
				c0.21-0.53,0.4-1.07,0.58-1.62c-4.87,6.14-12.4,10.08-20.84,10.08H272c-4.86,5.23-11.79,8.5-19.49,8.5h92.65
				c0.42,0,0.84-0.01,1.26-0.03C346.55,421.68,346.68,421.67,346.81,421.66z"/>
			<path class="st0" d="M123.63,413.21v-36.23h127.06c10,0,18.11,8.11,18.11,18.11v0c0,10-8.11,18.11-18.11,18.11H123.63z"/>
			<path class="st16" d="M250.69,413.21c10,0,18.11-8.11,18.11-18.11l0,0c0-10-8.11-18.11-18.11-18.11H117.16
				c-2.35,0-4.25-1.9-4.25-4.25l0,0c0-2.35,1.9-4.25,4.25-4.25h135.34c14.7,0,26.61,11.91,26.61,26.61v0
				c0,14.7-11.91,26.61-26.61,26.61H117.16c-2.35,0-4.25-1.9-4.25-4.25l0,0c0-2.35,1.9-4.25,4.25-4.25H250.69z"/>
			<path class="st10" d="M256.85,395.8c0.79,0,1.42-0.64,1.42-1.42c0-0.79-0.64-1.42-1.42-1.42H123.63v2.85H256.85z"/>
			<path class="st10" d="M203.6,389.65h-41.27c-0.79,0-1.42-0.64-1.42-1.42l0,0c0-0.79,0.64-1.42,1.42-1.42h41.27
				c0.79,0,1.42,0.64,1.42,1.42l0,0C205.02,389.02,204.39,389.65,203.6,389.65z"/>
			<path class="st10" d="M233.4,406.3h-17.55c-0.79,0-1.42-0.64-1.42-1.42c0-0.79,0.64-1.42,1.42-1.42h17.55
				c0.79,0,1.42,0.64,1.42,1.42C234.82,405.66,234.18,406.3,233.4,406.3z"/>
			<polygon class="st17" points="194.13,395.8 194.13,408.86 199.96,404.01 205.8,408.86 205.8,395.8 			"/>
		</g>
	</g>
	<g>
		<polygon class="st18" points="358.48,42.82 242.05,94.27 126.21,42.82 199.84,26.47 206.26,25.04 242.05,17.1 278.01,25.04 
			284.46,26.47 288.44,27.35 291.32,27.98 		"/>
		<polygon class="st19" points="242.05,17.1 242.05,94.27 126.21,42.82 		"/>
		<g>
			<path class="st20" d="M315.89,106.84l-5.71,0.93c-1.12,0.18-2.23,0.36-3.35,0.53c-4.36,0.68-8.73,1.29-13.12,1.83
				c-11.85,1.46-23.81,2.42-35.8,2.87c-26.99,1.02-54.15-0.53-80.66-4.65c-3.03-0.47-6.05-0.97-9.06-1.51l4.36-19.86l4.7-21.38
				c26.51-4.11,53.67-5.66,80.66-4.64c11.99,0.44,23.95,1.39,35.8,2.86c4.39,0.54,8.76,1.15,13.12,1.83l4.69,21.33L315.89,106.84z"
				/>
		</g>
		<g>
			<path class="st7" d="M291.56,57.74L291.56,57.74L291.56,57.74l-0.01-28.65c0-0.39-0.08-0.76-0.24-1.12
				c-0.72-1.69-3.04-2.94-5.78-2.94h-7.53l6.45,1.42h1.08c1.15,0,2.2,0.34,2.9,0.88c0.62,0.47,1,1.08,1,1.75v28.64l0,0
				c-1.81,2.22-2.76,4.71-2.76,7.25v9.85h3.77h0.12h3.77v-9.85C294.33,62.46,293.38,59.96,291.56,57.74z"/>
		</g>
	</g>
	<g>
		<g>
			<g>
				<rect x="220.02" y="264.16" class="st21" width="44.65" height="41.46"/>
			</g>
			<g>
				<g>
					<g>
						<rect x="220.02" y="293.49" class="st22" width="44.65" height="12.13"/>
					</g>
				</g>
			</g>
			<g>
				<rect x="220.02" y="264.16" class="st22" width="44.65" height="16.91"/>
			</g>
			<g>
				<path class="st21" d="M295.47,305.62H189.22v-1.05c0-4.6,3.73-8.33,8.33-8.33h89.59c4.6,0,8.33,3.73,8.33,8.33V305.62z"/>
			</g>
			<g>
				<path class="st23" d="M378.59,250.06H106.1V103.87c0-3.9,3.16-7.06,7.06-7.06h258.37c3.9,0,7.06,3.16,7.06,7.06V250.06z"/>
			</g>
			<g>
				<rect x="113.51" y="104.22" class="st0" width="257.67" height="138.44"/>
			</g>
			<g>
				<g>
					<path class="st21" d="M378.59,250.06H106.1v21.14c0,3.9,3.16,7.06,7.06,7.06h258.37c3.9,0,7.06-3.16,7.06-7.06V250.06z"/>
				</g>
			</g>
			<g>
				<g>
					<rect x="196.81" y="116.45" class="st21" width="39.64" height="3.25"/>
				</g>
				<g>
					<rect x="196.81" y="125.68" class="st21" width="39.64" height="3.25"/>
				</g>
				<g>
					<rect x="196.81" y="134.9" class="st21" width="39.64" height="3.25"/>
				</g>
				<g>
					<rect x="196.81" y="144.13" class="st21" width="39.64" height="3.25"/>
				</g>
				<g>
					<rect x="196.81" y="153.36" class="st21" width="39.64" height="3.25"/>
				</g>
				<g>
					<rect x="136.68" y="162.59" class="st21" width="99.77" height="3.25"/>
				</g>
				<g>
					<rect x="136.68" y="170.57" class="st21" width="99.77" height="3.25"/>
				</g>
				<g>
					<rect x="136.68" y="178.55" class="st21" width="99.77" height="3.25"/>
				</g>
				<g>
					<rect x="248.24" y="116.45" class="st21" width="99.77" height="3.25"/>
				</g>
				<g>
					<rect x="248.24" y="125.68" class="st21" width="99.77" height="3.25"/>
				</g>
				<g>
					<rect x="248.24" y="134.9" class="st21" width="99.77" height="3.25"/>
				</g>
				<g>
					<rect x="248.24" y="144.13" class="st21" width="99.77" height="3.25"/>
				</g>
				<g>
					<rect x="248.24" y="153.36" class="st21" width="85.38" height="3.25"/>
				</g>
				<g>
					<rect x="259.71" y="162.59" class="st21" width="88.3" height="3.25"/>
				</g>
				<g>
					<rect x="248.24" y="171.81" class="st21" width="99.77" height="3.25"/>
				</g>
				<g>
					<rect x="248.24" y="181.04" class="st21" width="99.77" height="3.25"/>
				</g>
				<g>
					<rect x="248.24" y="190.27" class="st21" width="99.77" height="3.25"/>
				</g>
				<g>
					<rect x="248.24" y="199.5" class="st21" width="99.77" height="3.25"/>
				</g>
				<g>
					<rect x="248.24" y="208.73" class="st21" width="99.77" height="3.25"/>
				</g>
				<g>
					<rect x="248.24" y="217.95" class="st21" width="99.77" height="3.25"/>
				</g>
				<g>
					<rect x="248.24" y="227.18" class="st21" width="85.38" height="3.25"/>
				</g>
				<g>
					<rect x="136.68" y="186.53" class="st21" width="99.77" height="3.25"/>
				</g>
				<g>
					<rect x="136.68" y="194.51" class="st21" width="99.77" height="3.25"/>
				</g>
				<g>
					<rect x="136.68" y="202.5" class="st21" width="99.77" height="3.25"/>
				</g>
				<g>
					<rect x="136.68" y="210.48" class="st21" width="83.84" height="3.25"/>
				</g>
				<g>
					<rect x="147.95" y="218.46" class="st21" width="88.5" height="3.25"/>
				</g>
				<g>
					<rect x="136.68" y="226.44" class="st21" width="99.77" height="3.25"/>
				</g>
				<g>
					<rect x="136.68" y="116.45" class="st21" width="55.19" height="40.16"/>
				</g>
			</g>
		</g>
		<g>
			<g>
				<rect x="141" y="304.1" class="st24" width="202.69" height="11.17"/>
			</g>
			<g>
				<rect x="141" y="311.64" class="st21" width="202.69" height="3.63"/>
			</g>
			<g>
				<g>
					<g>
						<rect x="145.3" y="299.88" class="st24" width="8.43" height="4.21"/>
					</g>
					<g>
						<rect x="157.87" y="299.88" class="st24" width="8.43" height="4.21"/>
					</g>
					<g>
						<rect x="170.19" y="299.88" class="st24" width="8.43" height="4.21"/>
					</g>
					<g>
						<rect x="257.06" y="299.88" class="st24" width="8.43" height="4.21"/>
					</g>
					<g>
						<rect x="269.63" y="299.88" class="st24" width="8.43" height="4.21"/>
					</g>
					<g>
						<rect x="281.95" y="299.88" class="st24" width="8.43" height="4.21"/>
					</g>
					<g>
						<rect x="293.58" y="299.88" class="st24" width="8.43" height="4.21"/>
					</g>
					<g>
						<rect x="305.9" y="299.88" class="st24" width="8.43" height="4.21"/>
					</g>
					<g>
						<g>
							<rect x="182.25" y="299.88" class="st24" width="71.22" height="4.21"/>
						</g>
					</g>
				</g>
				<g>
					<g>
						<rect x="318.39" y="299.88" class="st24" width="8.43" height="4.21"/>
					</g>
					<g>
						<rect x="330.97" y="299.88" class="st24" width="8.43" height="4.21"/>
					</g>
				</g>
			</g>
			<g>
				<g>
					<g>
						<rect x="145.3" y="303.1" class="st25" width="8.43" height="0.99"/>
					</g>
					<g>
						<rect x="157.87" y="303.1" class="st25" width="8.43" height="0.99"/>
					</g>
					<g>
						<rect x="170.19" y="303.1" class="st25" width="8.43" height="0.99"/>
					</g>
					<g>
						<rect x="257.06" y="303.1" class="st25" width="8.43" height="0.99"/>
					</g>
					<g>
						<rect x="269.63" y="303.1" class="st25" width="8.43" height="0.99"/>
					</g>
					<g>
						<rect x="281.95" y="303.1" class="st25" width="8.43" height="0.99"/>
					</g>
					<g>
						<rect x="293.58" y="303.1" class="st25" width="8.43" height="0.99"/>
					</g>
					<g>
						<rect x="305.9" y="303.1" class="st25" width="8.43" height="0.99"/>
					</g>
					<g>
						<g>
							<rect x="182.25" y="303.1" class="st25" width="71.22" height="0.99"/>
						</g>
					</g>
				</g>
				<g>
					<g>
						<rect x="318.39" y="303.1" class="st25" width="8.43" height="0.99"/>
					</g>
					<g>
						<rect x="330.97" y="303.1" class="st25" width="8.43" height="0.99"/>
					</g>
				</g>
			</g>
		</g>
	</g>
	<path class="st20" d="M142.51,457.06h20.34l-3.95,17.87h3.52l39.67-179.31h-3.52l-3.92,17.73H174.3l3.92-17.73h-3.52l-39.67,179.31
		h3.52L142.51,457.06z M168.93,429.56h-20.34l4.2-18.98h20.34L168.93,429.56z M168.22,340.85h20.34l-4.2,18.98h-20.34L168.22,340.85
		z M183.42,364.1l-4.2,18.98h-20.34l4.2-18.98H183.42z M178.28,387.34l-4.2,18.98h-20.34l4.2-18.98H178.28z M193.7,317.61
		l-4.2,18.98h-20.34l4.2-18.98H193.7z M143.45,452.8l4.2-18.98h20.34l-4.2,18.98H143.45z"/>
	<g>
		<path class="st26" d="M233.31,208.87v15.27c0,4.99,4.05,9.04,9.04,9.04h0c4.99,0,9.04-4.05,9.04-9.04v-15.27H233.31z"/>
		<path class="st27" d="M252.02,222.82h-19.34c-0.49,0-0.88-0.39-0.88-0.88v-0.74c0-0.49,0.39-0.88,0.88-0.88h19.34
			c0.49,0,0.88,0.39,0.88,0.88v0.74C252.9,222.42,252.5,222.82,252.02,222.82z"/>
		<path class="st27" d="M252.02,217.36h-19.34c-0.49,0-0.88-0.39-0.88-0.88v-0.74c0-0.49,0.39-0.88,0.88-0.88h19.34
			c0.49,0,0.88,0.39,0.88,0.88v0.74C252.9,216.97,252.5,217.36,252.02,217.36z"/>
		<g>
			
				<ellipse transform="matrix(0.7071 -0.7071 0.7071 0.7071 -50.1153 221.5229)" class="st23" cx="242.34" cy="171.26" rx="39.18" ry="39.18"/>
			<circle class="st28" cx="242.34" cy="171.26" r="33.97"/>
			<path class="st29" d="M212.55,165.89c-0.03,0.17-0.06,0.34-0.09,0.5c-0.21,1.22,0.75,2.33,1.98,2.33l0,0
				c0.96,0,1.81-0.68,1.97-1.63c0.03-0.17,0.06-0.34,0.09-0.51c0.22-1.23-0.7-2.37-1.96-2.37h-0.01
				C213.55,164.22,212.73,164.93,212.55,165.89z"/>
			<path class="st29" d="M217.15,160.46L217.15,160.46c0.77,0,1.45-0.45,1.8-1.13c3.48-6.79,9.83-11.87,17.45-13.64
				c0.89-0.21,1.5-1.02,1.5-1.94v0c0-1.29-1.2-2.25-2.46-1.96c-8.8,2.05-16.11,7.94-20.1,15.8
				C214.67,158.91,215.68,160.46,217.15,160.46z"/>
			<g>
				<rect x="241.82" y="140.09" class="st23" width="1.06" height="4.89"/>
				<rect x="241.82" y="197.53" class="st23" width="1.06" height="4.89"/>
			</g>
			<g>
				
					<rect x="213.1" y="168.81" transform="matrix(6.123234e-17 -1 1 6.123234e-17 42.3723 384.8842)" class="st23" width="1.06" height="4.89"/>
				
					<rect x="270.53" y="168.81" transform="matrix(6.123234e-17 -1 1 6.123234e-17 99.8041 442.3161)" class="st23" width="1.06" height="4.89"/>
			</g>
			<path class="st23" d="M245.23,171.26c0,1.6-1.29,2.89-2.89,2.89s-2.89-1.29-2.89-2.89c0-1.6,1.29-2.89,2.89-2.89
				S245.23,169.66,245.23,171.26z"/>
			<rect x="241.01" y="152.11" class="st23" width="2.67" height="18.61"/>
			<rect x="229.12" y="169.62" class="st23" width="13.22" height="2.97"/>
		</g>
		<path class="st30" d="M242.34,116.45c-1,0-1.81,0.81-1.81,1.81v7.59c0,1,0.81,1.81,1.81,1.81c1,0,1.81-0.81,1.81-1.81v-7.59
			C244.16,117.26,243.34,116.45,242.34,116.45z"/>
		<path class="st30" d="M281.1,132.5c-0.71-0.71-1.85-0.71-2.56,0l-5.37,5.37c-0.71,0.71-0.71,1.85,0,2.56
			c0.71,0.71,1.85,0.71,2.56,0l5.37-5.37C281.81,134.35,281.81,133.21,281.1,132.5z"/>
		<path class="st30" d="M211.52,202.08c-0.71-0.71-1.85-0.71-2.56,0l-5.37,5.37c-0.71,0.71-0.71,1.85,0,2.56
			c0.71,0.71,1.85,0.71,2.56,0l5.37-5.37C212.23,203.94,212.22,202.79,211.52,202.08z"/>
		<path class="st30" d="M297.15,171.26c0-1-0.81-1.81-1.81-1.81h-7.59c-1,0-1.81,0.81-1.81,1.81c0,1,0.81,1.81,1.81,1.81h7.59
			C296.34,173.07,297.15,172.26,297.15,171.26z"/>
		<path class="st30" d="M198.75,171.26c0-1-0.81-1.81-1.81-1.81h-7.59c-1,0-1.81,0.81-1.81,1.81c0,1,0.81,1.81,1.81,1.81h7.59
			C197.94,173.07,198.75,172.26,198.75,171.26z"/>
		<path class="st30" d="M281.1,210.01c0.71-0.71,0.71-1.85,0-2.56l-5.37-5.37c-0.71-0.71-1.85-0.71-2.56,0
			c-0.71,0.71-0.71,1.85,0,2.56l5.37,5.37C279.25,210.72,280.39,210.72,281.1,210.01z"/>
		<path class="st30" d="M211.52,140.43c0.71-0.71,0.71-1.85,0-2.56l-5.37-5.37c-0.71-0.71-1.85-0.71-2.56,0
			c-0.71,0.71-0.71,1.85,0,2.56l5.37,5.37C209.66,141.14,210.81,141.14,211.52,140.43z"/>
	</g>
	<g>
		<g>
			<g>
				<path class="st31" d="M337.98,125.4c-0.25,2.22-0.6,4.44-1.1,6.62l4.25-2.04c0,0,0.23-1.79,0.7-4.58H337.98z"/>
				<path class="st32" d="M341.12,131.46c0.15-0.76,0.42-1.5,0.81-2.17l0.29-0.5l-0.69-0.09l0,0c-1.8,2.26-5.34,3.37-8.19,2.93
					c-0.05-0.01-0.09-0.01-0.14-0.02c-4.2-0.67-4.94,2.96-4.94,2.96s5.7,2.98,10.05-0.33l1.55-1.19l-1.02,3.21l1.33,0.12
					L341.12,131.46z"/>
			</g>
			<g>
				<path class="st31" d="M344.03,125.64c0.45,3.9,0.03,8.14-0.38,12.72l3.93-2.6c0,0,0.27-4.35,0.27-10.12H344.03z"/>
				<path class="st32" d="M347.78,137.22c0.04-0.78,0.22-1.54,0.51-2.26l0.22-0.53h-0.69l0,0c-1.47,2.48-4.83,4.06-7.72,4.02
					c-0.05,0-0.09,0-0.14,0c-4.26-0.1-4.5,3.6-4.5,3.6s6.05,2.18,9.91-1.69l1.38-1.39l-0.57,3.32l1.33-0.06L347.78,137.22z"/>
			</g>
			<path class="st32" d="M361.04,82.16c-1.4,0.59-7.43,4.04-12.19,3.93l0,0.01c-3.83-0.05-11.82,0.14-12.78,2.54
				c-1.06,2.64,0.28,6.53,2.15,11.76c1.05,7.43,1.48,17.83-0.73,27.42l4.25-2.04c0,0,0.69-3.43,1.39-8.25
				c0.85,4.88,1.24,10.33,0.69,16.39l3.93-2.6c0,0,1.54-24.77-2.68-34.5c0,0,1.02-0.01,5.81-0.2c0,0,21.22,3.89,24.01-3.09
				C377.39,87.31,363.96,82.89,361.04,82.16z"/>
		</g>
		<g>
			<path class="st14" d="M365.64,53.98l-2.56,9.24c-20.2,10.7-38.48,4.55-38.48,4.55l0.43-2.18
				C344.6,68.76,365.64,53.98,365.64,53.98z"/>
			<path class="st31" d="M363.87,55.04c0,0-1.69-11.69-8.08-10.29c-3.02,0.66-3.21-4.3-3.21-4.3l-2.67-0.67
				c1.41-2.46-1.32-9.46-1.32-9.46s10.21-4.93,14.23,3.62c1.03,2.18,0.92,4.75,1.68,7.02c2.21,6.63,4.28,12.46,4.28,12.46
				L363.87,55.04z"/>
			<path class="st33" d="M360.53,23.01c0,0-4.06-4.95,0.65-7.39c4.71-2.44,10.09,0.14,9.98,3.82c-0.11,3.68-3.53,7.01-6.95,5.69
				C360.79,23.81,360.53,23.01,360.53,23.01z"/>
			<path class="st14" d="M358.12,80.09c1.54-2.54,2.74-5.27,3.18-8.21c0.07-4.03-3.75-9.69-2.63-11.68c0.77-1.36,2.3-4.77,3.2-6.78
				c-0.07-1.03-0.13-1.62-0.13-1.62l0,0c0.01-0.92-0.58-3.99-0.58-3.99c-1.73,0.52-3.12-1.33-2.19-1.39
				c0.92-0.06,6.75-1.21,6.75-1.21h0.24c0,0,2.06,3.54,2.86,5.93l0,0c16.2,24.01,2.91,46.69,2.51,42.45
				c-0.4-4.24-6.48-8.21-10.98-9.68C357.26,82.89,357.39,81.31,358.12,80.09z"/>
			<path class="st33" d="M348.59,30.32c0,0-2.65-0.07-1.98-3.82s6.52-10.82,14.24-4.97c7.73,5.85,12.72,12.42,3.27,19.73
				c0,0-0.22-9.79-7.69-8.03C352.45,34.17,348.59,30.32,348.59,30.32z"/>
			<path class="st33" d="M352.75,31.8c0,0,3.74,2.01,3.64,4.6c0,0,0.72-2.3-0.62-3.97C354.43,30.75,352.75,31.8,352.75,31.8z"/>
			<path class="st31" d="M332.6,76.94c-0.67-1.24-2.92-2.55-2.92-2.55l0.51,1.93c-0.37-0.09-1.08-0.2-1.83-0.32
				c-1.32-0.2-2.51,0.83-2.51,2.17l0,0c0,1.19,0.95,2.17,2.15,2.19c2.01,0.04,4.33-0.04,5.19-0.37L332.6,76.94z"/>
			<path class="st31" d="M325.02,65.6c-0.12-1.24-1.34-3.61-1.34-3.61l-0.25,1.75c-0.27-0.2-0.81-0.54-1.38-0.89
				c-1.01-0.62-2.33-0.2-2.8,0.89l0,0c-0.41,0.97,0.02,2.09,0.99,2.53c1.62,0.73,3.54,1.47,4.35,1.5L325.02,65.6z"/>
			<path class="st14" d="M365.75,55.04l2.39,10.31c-14.5,16.79-34.96,14.62-34.96,14.62l-0.59-3.04
				C357.81,76.69,365.75,55.04,365.75,55.04z"/>
		</g>
	</g>
	<g>
		<polygon class="st34" points="65.08,459.6 62.1,459.6 62.1,462.41 65.6,462.41 		"/>
		<path class="st32" d="M90.29,461.95c0,0,0.4-3.41,0.29-6.96h11.46c-0.45,5.22-1.15,9.81-2.27,11.5
			c-3.13,4.71-29.61-4.71-34.68-3.45v-3.99C65.08,459.05,81.58,458.51,90.29,461.95z"/>
		<path class="st32" d="M62.1,459.6c0,0-1.86-0.41-2.67-0.3c0,0-0.84,4.32-0.31,10.45c0,0,2.98-1.59,2.98-7.34h0.81
			C62.91,462.41,62.03,461.7,62.1,459.6z"/>
		<polygon class="st34" points="65.08,464.79 62.1,464.79 62.1,467.6 65.6,467.6 		"/>
		<path class="st32" d="M102.8,439.34c0,0,0.1,27.62-3.04,32.34c-3.13,4.71-29.61-4.71-34.68-3.45v-3.99c0,0,16.5-0.54,25.21,2.9
			c0,0,1.01-8.58-0.62-12.72c-3.44-8.76-1.38-10.77-0.65-16.39L102.8,439.34z"/>
		<path class="st34" d="M101.73,384.73l0.69,4.69l0.67,2.49c0.14,0.51-0.1,1.04-0.57,1.29l-0.87,0.45l0.26,1.31
			c0.25,1.22-0.54,2.42-1.76,2.68l-3.02,0.65c-1.33,0.29-2.18,1.58-1.92,2.92l1.39,7.07l-8.48-2.83l-0.23-18.98L101.73,384.73z"/>
		<path class="st35" d="M88.14,400.43c0,0,6.77-0.07,11.18,4.34c0,0-9.13-2.91-11.42-1.51L88.14,400.43z"/>
		<path class="st6" d="M87.91,403.26c0,0-4.9,10.66-2.25,20.03c2.65,9.37,3.25,12.45,2.25,14.48c-1,2.03,5.54,2.03,13.82,1.56h2.47
			c0,0,0.78-3.53-0.45-5.25c-1.24-1.72,0.16-4.52-2.88-14.3c-2.54-8.18-1.55-15.02-1.55-15.02S91.41,397.44,87.91,403.26z"/>
		<path class="st6" d="M95.52,404.78l6.55,4.24c4.51,2.92,10.14,3.54,15.17,1.66l16.37-6.1l2.07,1.19l-20.09,10.88
			c-3.87,2.1-8.41,2.61-12.65,1.43l-5.89-1.64l-1.99-11.67"/>
		<path class="st32" d="M62.1,464.79c0,0-1.86-0.41-2.67-0.3c0,0-0.84,4.32-0.31,10.45c0,0,2.98-1.59,2.98-7.34h0.81
			C62.91,467.6,62.03,466.89,62.1,464.79z"/>
		<path class="st33" d="M89.54,380.38c6.81-3.13,12.19,0.4,12.16,4.32l0.04,0.03l-5.28,1.94c-0.89,0.33-1.5,1.15-1.55,2.1
			c-0.08,1.39-1.32,2.41-2.7,2.22l-1.55-0.21l-1.23,4.87l-1.62,1l-0.22-1.71c-0.46-2.43-1.38-2.84-1.38-2.84
			C81.69,385.26,89.29,380.49,89.54,380.38z"/>
		<path class="st34" d="M133.62,404.59c0,0,2.16-1.82,2.6-3.57c0.43-1.75,0.87-3.05,1.65-2.62c0.78,0.43-0.35,3.05-0.35,3.05
			s2.68-3.75,4.5-2.36c1.82,1.38,2.34,4.33-1.04,5.19c-3.38,0.87-5.29,1.5-5.29,1.5L133.62,404.59z"/>
	</g>
	<g>
		<path class="st36" d="M422.45,362.07c0,0-15.16,11.79-38.2,10.7l0.59,3.02c0,0,21.5,2.97,39.75-6.13L422.45,362.07z"/>
		<g>
			<path class="st23" d="M378.46,334.8l5.83,65.79c0.28,3.14,3.05,5.46,6.19,5.18s5.46-3.05,5.18-6.19l-5.83-65.79L378.46,334.8z"/>
			
				<ellipse transform="matrix(0.993 -0.1181 0.1181 0.993 -33.6289 47.2255)" class="st23" cx="381.76" cy="307.44" rx="36.96" ry="36.96"/>
			
				<ellipse transform="matrix(0.6062 -0.7953 0.7953 0.6062 -94.1648 424.7067)" class="st1" cx="381.76" cy="307.44" rx="31.11" ry="31.11"/>
			<path class="st0" d="M357.78,317.89c0.21,0.48,0.43,0.95,0.67,1.41c0.57,1.11,1.74,1.76,2.98,1.65l0,0
				c2.14-0.19,3.39-2.48,2.41-4.39c-0.18-0.35-0.35-0.7-0.5-1.06c-0.52-1.2-1.74-1.93-3.04-1.82l0,0
				C358.25,313.86,356.95,316,357.78,317.89z"/>
			<path class="st0" d="M359.25,306.39l0.01,0c1.39-0.12,2.47-1.19,2.72-2.56c1.41-7.8,7.36-14.18,15.23-15.99
				c1.44-0.33,2.39-1.72,2.26-3.19l0,0c-0.16-1.84-1.92-3.11-3.71-2.69c-10.25,2.4-17.98,10.75-19.77,20.94
				C355.65,304.84,357.29,306.57,359.25,306.39z"/>
			
				<rect x="380.69" y="357.49" transform="matrix(0.9961 -0.0883 0.0883 0.9961 -30.2511 35.5185)" class="st26" width="11.41" height="4.49"/>
			
				<rect x="381.76" y="369.52" transform="matrix(0.9961 -0.0883 0.0883 0.9961 -31.3088 35.6596)" class="st26" width="11.41" height="4.49"/>
		</g>
		<g>
			<path class="st31" d="M384.25,379.85c0,0-1.95-0.51-1.95-1.73l-0.18-2.09c0,0-1.89,1.02-1.89,3.14c0,2.12,0.16,4.26,4.63,3.7
				L384.25,379.85z"/>
			<g>
				<path class="st31" d="M419.35,461.2c0,0,1.11,7.43,0.7,10.49c0,0,0.25,0.4,2.49-0.1s2.88-1.96,2.88-1.96v-8.44H419.35z"/>
				<path class="st33" d="M413.58,416.77c0.07,3.48,0.34,13.26,1.37,23.69c0.74,7.53,1.86,15.37,2.71,21.25h8.55
					c0.41-7.2,0.75-19.22-0.91-26.65c0,0,1.86-15.42,1.72-19.64c0.38-2.64,0.99-5.16,0.99-5.16c0.86-2.35,4.16-6.84,0.3-13.9
					c0,0-13.01,2.18-15.56,0.48c0,0,0.12,17.51,0.81,19.94L413.58,416.77z"/>
				<path class="st31" d="M425.48,365.68l-0.72-3.52l1.85-4.45c1.46-3.52,0.76-7.57-1.8-10.39l0,0c-2.16-2.38-5.35-3.56-8.54-3.15
					l-3.41-0.24l-1.74,3.26c-0.36,0.66-0.22,1.48,0.34,1.97c0.53,0.47,0.69,1.24,0.38,1.88l-1.54,3.3l2.34,0.94
					c0,0-0.36,5,3.05,4.59c1.65-0.2,2.28-0.29,2.5-0.33l1.18,7.57L425.48,365.68z"/>
				<path class="st36" d="M428.37,381.91c2.7-14.03-3.2-17.77-3.2-17.77c-0.56,2.44-5.8,2.98-5.8,2.98s-4.38,4.11-4.34,4.46
					c-1.56,1.57-3.56,4.14-3.01,6.53c0.58,2.52,1.98,5.5,2.85,7.22c-0.68,5.57-1.87,10.04-2.3,12.32
					c-0.84,4.45,16.86,0.38,16.03-0.71C427.77,395.85,426.55,391.39,428.37,381.91z"/>
				<path class="st32" d="M426.99,467.71c0,0-1.22-0.38-1.75,0.78c-0.53,1.16-1.33,2.92-4.94,2.73c-3.61-0.19-5.68,1.59-5.82,3.13
					c0,0,8.09,1.83,10.4-0.96l0.77-1.35l0.63,2.36l0.72-0.14V467.71z"/>
				<path class="st36" d="M422.45,369.16c0,0-15.16,11.79-38.2,10.7l0.59,3.02c0,0,21.5,4.29,39.75-4.81L422.45,369.16z"/>
				<path class="st33" d="M432.09,352.19c-0.22,0-0.44,0.03-0.66,0.07c0.67-4.16-2.01-8.45-5.5-10.91
					c-5.28-3.7-10.03-1.47-12.45,0.24c-0.32,0.23-0.59,0.51-0.82,0.81c0,0-0.01-0.01-0.01-0.01s-0.01,0.02-0.02,0.05
					c-0.28,0.38-0.87,0.75-1,1.19c-0.62,1.06-1.28,2.4-2.65,2.12c-2.25-0.46,1.39,2.82,6.73,3.2c0,0,0.01,0,0.01,0
					c1.83,0.82,3.86,1.34,5.15,1.95c3.04,1.43-2.91,4.8,0.33,4.43c3.24-0.36,4.79,3.87,4.79,3.87c0.88-0.51,1.62-1.07,2.27-1.64
					c0.55,1.59,2.04,2.74,3.82,2.74c2.24,0,4.06-1.82,4.06-4.06C436.15,354.01,434.33,352.19,432.09,352.19z"/>
			</g>
		</g>
	</g>
	<g>
		
			<rect x="149.15" y="307.14" transform="matrix(0.9998 -0.0211 0.0211 0.9998 -6.4802 3.279)" class="st34" width="6.44" height="4.05"/>
		<path class="st20" d="M155.63,311.12c0,0,4.46-0.88,7.39,0.31c1.31,0.53,2.14,1.82,2.17,3.23l0.01,0.27l-9.98,0.21
			c-0.24,0.01-0.48-0.03-0.72-0.1l-2.35-0.73l0,0c-0.42,0.57-1.08,0.91-1.78,0.93l-1.1,0.02l-0.08-4.01l-0.02-0.97
			C149.17,310.29,152.75,311.17,155.63,311.12z"/>
		<path class="st20" d="M140.69,241.63c0,0-1.75,6.86,1.67,15.29c4.84,11.93,6.11,51.09,6.11,51.09l7.1-0.15
			c0,0,1.25-43.98,1.03-48.44c-0.3-6-0.67-11.71-0.1-18.12L140.69,241.63z"/>
		<path class="st5" d="M145.36,203.72c0,0,22.25-0.2,40.76-11.15l2.58,2.98c0,0-22.07,13.53-39.48,15.7L145.36,203.72z"/>
		<path class="st34" d="M186.12,192.57c0,0,0.59-2.96,0.43-4.91c-0.16-1.95,2.43-0.36,1.51,2.36c0,0,1.08-3.82,4.33-2.36
			c3.24,1.46,0.46,6.15-3.69,7.89L186.12,192.57z"/>
		<path class="st5" d="M148.63,212.07c0,0,22.25-0.2,40.76-11.15l2.58,2.98c0,0-22.07,13.53-39.48,15.7L148.63,212.07z"/>
		<path class="st34" d="M189.4,200.92c0,0,0.59-2.96,0.43-4.91c-0.16-1.95,2.43-0.36,1.51,2.36c0,0,1.08-3.82,4.33-2.36
			c3.24,1.46,0.46,6.15-3.69,7.89L189.4,200.92z"/>
		<path class="st34" d="M152.3,210.97l-2.97-6.84c-0.31-0.72,0.2-1.53,0.98-1.55l2.65-0.97c3.3-0.61,0.44-5.05,0.44-5.05
			s4.73-0.43,2.95-2.33c-1.78-1.9-4.03-9.37-4.03-9.37s-12.97,1.71-11.32,14.72c1.55,12.21,1.22,12.61,1.22,12.61L152.3,210.97z"/>
		<path class="st37" d="M152.32,184.86c0,0-4.79-4.19-11.36-0.59c-7.58,4.16-5.9,11.76-3.09,14.29c0.45,0.4,0.85,0.85,1.15,1.36
			c0.81,1.36,2.25,3.89,2.67,5.41l0.75-0.27c0,0-1.95-5.85,0.16-8.75c0,0,1.49,0.13,1.63,2.24l1.2-0.53c0,0-2.53-4.02-1.2-5.73
			C145.57,190.59,156.89,190.98,152.32,184.86z"/>
		<path class="st5" d="M157.09,242.06c-0.83,3.92-12.31,1.91-16.23,0.94c-5.37-1.33,2.88-7.24,1.37-17.9c-0.92-6.48,0-12.9,0-12.9
			l0.07-0.1c0.01-0.38-0.06-1.51-0.41-4.7l8.3-1.3l0.33,0.77C150.5,206.85,160.39,226.45,157.09,242.06z"/>
	</g>
</g>
<g id="DESIGNED_BY_FREEPIK">
</g>
</svg>
