<svg id="Layer_1" data-name="Layer 1" xmlns="http://www.w3.org/2000/svg" viewBox="0 0 1080 259.4">
<defs>
<style>
.cls-1{fill:#f7f7f7;}
.cls-2{fill:#1546a3;}
.cls-3{fill:#00ffce;}
.cls-4{fill:#111;}
</style>
</defs>
<title>logo type</title>
<rect class="cls-1" width="1080" height="259.4"/>
<rect class="cls-2" x="114.55" y="39.82" width="170.44" height="170.44" rx="19.85"/>
<path class="cls-3" d="M239.52,99.47H160c-7.34-.37-15.32,2.21-19.88,11.36V79.6A19.88,19.88,0,0,1,160,59.71h99.4V79.57A19.9,19.9,0,0,1,239.52,99.47Z"/>
<path class="cls-3" d="M199.78,144.92H160a20.4,20.4,0,0,0-19.88,11.36V125.05A19.89,19.89,0,0,1,160,105.15h59.64V125A19.88,19.88,0,0,1,199.78,144.92Z"/>
<path class="cls-3" d="M160,150.6h19.88a0,0,0,0,1,0,0v19.88A19.88,19.88,0,0,1,160,190.37h0a19.88,19.88,0,0,1-19.88-19.88v0A19.88,19.88,0,0,1,160,150.6Z"/>
<path class="cls-4" d="M344.93,137.88H325.69V114.56h19.24V97.84c0-20.59,5.24-38.09,36.92-38.09A71,71,0,0,1,399,61.5l-1.36,24.68a27,27,0,0,0-9.52-1.94c-9.33,0-14,2.92-14,15.35v15h21.57v23.32H374.08V209H344.93Zm62.18-75.79h29.15V209H407.11Z"/>
<path class="cls-4" d="M535,192.68c-9.32,11.86-24.68,18.66-39.84,18.66-29.15,0-52.47-19.44-52.47-49.56s23.32-49.55,52.47-49.55c27.21,0,44.31,19.43,44.31,49.55v9.14H471.82c2.34,11.07,10.69,18.26,22,18.26,9.53,0,15.94-4.86,20.8-11.46ZM510.3,151.09a17.47,17.47,0,0,0-17.88-17.88c-12.82,0-19.82,8.75-20.6,17.88Z"/>
<path class="cls-4" d="M574.82,158.48l-31.48-43.92h34.39l16.72,25.65,16.13-25.65H643l-30.7,43.92L648.67,209h-34.4l-20.6-31.48L571.52,209h-34Z"/>
<path class="cls-4" d="M664.6,67.92a16.91,16.91,0,1,1-16.9,16.9A16.92,16.92,0,0,1,664.6,67.92ZM650,114.56h29.15V209H650Z"/>
<path class="cls-4" d="M745.83,142.35a20.8,20.8,0,0,0-16.9-8c-4.86,0-10.69,2.14-10.69,7.77,0,14,49.17,2.14,49.17,38.09,0,24.1-23.33,31.1-43.54,31.1-13.21,0-27.79-3.31-37.11-12.83l17.68-19.63c5.44,6.61,11.85,10.3,20.6,10.3,6.61,0,13.21-1.75,13.21-6.8,0-15.16-49.16-2.33-49.16-38.28,0-22.16,19.82-31.87,39.64-31.87,12.44,0,26.24,3.1,35,12.43Z"/>
<path class="cls-4" d="M833.87,197.15h-.39c-6.41,10.11-18.07,14.19-29.93,14.19-17.68,0-33.62-10.11-33.62-29.15,0-32.65,39.65-33.23,63.94-33.23,0-10.3-8.55-16.91-18.66-16.91-9.52,0-17.49,4.27-23.71,11.27L776,127.38c10.68-10.1,26.23-15.15,41.58-15.15,34,0,43.15,17.29,43.15,48.77v48H833.87Zm-7.19-29.54c-8.94,0-28.76.78-28.76,13.6,0,7,7.38,10.3,13.79,10.3,11.47,0,22.16-6,22.16-17.68v-6.22Z"/>
<path class="cls-4" d="M881.28,137.88H862V114.56h19.24V97.84c0-20.59,5.25-38.09,36.93-38.09a71,71,0,0,1,17.1,1.75L934,86.18a27.06,27.06,0,0,0-9.53-1.94c-9.32,0-14,2.92-14,15.35v15H932v23.32H910.43V209H881.28Z"/></svg>